<?xml version="1.0" encoding="UTF-8"?>
<svg id="Layer_15" data-name="Layer 15" xmlns="http://www.w3.org/2000/svg" viewBox="0 0 142.52 153.73">
  <defs>
    <style>
      .cls-1 {
        fill: #3e771d;
      }

      .cls-2 {
        fill: #66a0a3;
      }

      .cls-3 {
        fill: #9dcece;
      }

      .cls-4 {
        fill: #549930;
      }

      .cls-5 {
        fill: #e6ffdc;
      }

      .cls-6 {
        fill: #78cd51;
      }

      .cls-7 {
        fill: #b4f696;
      }

      .cls-8 {
        fill: #3a5a5f;
      }

      .cls-9 {
        fill: #a1f37f;
      }

      .cls-10 {
        fill: #1e3638;
      }
    </style>
  </defs>
  <rect class="cls-3" x="135.9" y="87.92" width="7.55" height="7.33"/>
  <rect class="cls-3" x="135.9" y="80.59" width="7.55" height="7.33"/>
  <rect class="cls-3" x="135.9" y="73.27" width="7.55" height="7.32"/>
  <rect class="cls-2" x="135.9" y="65.94" width="7.55" height="7.33"/>
  <rect class="cls-2" x="135.9" y="58.61" width="7.55" height="7.33"/>
  <rect class="cls-8" x="135.9" y="51.29" width="7.55" height="7.32"/>
  <rect class="cls-8" x="135.9" y="43.96" width="7.55" height="7.33"/>
  <rect class="cls-2" x="135.9" y="36.63" width="7.55" height="7.33"/>
  <rect class="cls-3" x="135.9" y="29.31" width="7.55" height="7.32"/>
  <rect class="cls-2" x="128.35" y="95.25" width="7.55" height="7.32"/>
  <rect class="cls-2" x="128.35" y="87.92" width="7.55" height="7.33"/>
  <rect class="cls-10" x="128.35" y="80.59" width="7.55" height="7.33"/>
  <rect class="cls-10" x="128.35" y="73.27" width="7.55" height="7.32"/>
  <rect class="cls-10" x="128.35" y="65.94" width="7.55" height="7.33"/>
  <rect class="cls-10" x="128.35" y="58.61" width="7.55" height="7.33"/>
  <rect class="cls-10" x="128.35" y="51.29" width="7.55" height="7.32"/>
  <rect class="cls-10" x="128.35" y="43.96" width="7.55" height="7.33"/>
  <rect class="cls-8" x="128.35" y="36.63" width="7.55" height="7.33"/>
  <rect class="cls-8" x="128.35" y="29.31" width="7.55" height="7.32"/>
  <rect class="cls-2" x="128.35" y="21.98" width="7.55" height="7.33"/>
  <rect class="cls-8" x="120.8" y="102.57" width="7.55" height="7.33"/>
  <rect class="cls-10" x="120.8" y="95.25" width="7.55" height="7.32"/>
  <rect class="cls-10" x="120.8" y="87.92" width="7.55" height="7.33"/>
  <rect class="cls-10" x="120.8" y="80.59" width="7.55" height="7.33"/>
  <rect class="cls-1" x="120.8" y="73.27" width="7.55" height="7.32"/>
  <rect class="cls-1" x="120.8" y="65.94" width="7.55" height="7.33"/>
  <rect class="cls-1" x="120.8" y="58.61" width="7.55" height="7.33"/>
  <rect class="cls-1" x="120.8" y="51.29" width="7.55" height="7.32"/>
  <rect class="cls-9" x="120.8" y="43.96" width="7.55" height="7.33"/>
  <rect class="cls-9" x="120.8" y="36.63" width="7.55" height="7.33"/>
  <rect class="cls-9" x="120.8" y="29.31" width="7.55" height="7.32"/>
  <rect class="cls-9" x="120.8" y="21.98" width="7.55" height="7.33"/>
  <rect class="cls-8" x="120.8" y="14.65" width="7.55" height="7.33"/>
  <rect class="cls-8" x="113.25" y="109.9" width="7.55" height="7.33"/>
  <rect class="cls-8" x="113.25" y="102.57" width="7.55" height="7.33"/>
  <rect class="cls-10" x="113.25" y="95.25" width="7.55" height="7.32"/>
  <rect class="cls-10" x="113.25" y="87.92" width="7.55" height="7.33"/>
  <rect class="cls-4" x="113.25" y="80.59" width="7.55" height="7.33"/>
  <rect class="cls-4" x="113.25" y="73.27" width="7.55" height="7.32"/>
  <rect class="cls-6" x="113.25" y="65.94" width="7.55" height="7.33"/>
  <rect class="cls-4" x="113.25" y="58.61" width="7.55" height="7.33"/>
  <rect class="cls-9" x="113.25" y="51.29" width="7.55" height="7.32"/>
  <rect class="cls-9" x="113.25" y="43.96" width="7.55" height="7.33"/>
  <rect class="cls-7" x="113.25" y="36.63" width="7.55" height="7.33"/>
  <rect class="cls-7" x="113.25" y="29.31" width="7.55" height="7.32"/>
  <rect class="cls-9" x="113.25" y="21.98" width="7.55" height="7.33"/>
  <rect class="cls-6" x="113.25" y="14.65" width="7.55" height="7.33"/>
  <rect class="cls-5" x="113.25" y="7.33" width="7.55" height="7.32"/>
  <rect class="cls-8" x="105.7" y="117.23" width="7.55" height="7.32"/>
  <rect class="cls-8" x="105.7" y="109.9" width="7.55" height="7.33"/>
  <rect class="cls-10" x="105.7" y="102.57" width="7.55" height="7.33"/>
  <rect class="cls-10" x="105.7" y="95.25" width="7.55" height="7.32"/>
  <rect class="cls-4" x="105.7" y="87.92" width="7.55" height="7.33"/>
  <rect class="cls-4" x="105.7" y="80.59" width="7.55" height="7.33"/>
  <rect class="cls-6" x="105.7" y="73.27" width="7.55" height="7.32"/>
  <rect class="cls-4" x="105.7" y="65.94" width="7.55" height="7.33"/>
  <rect class="cls-9" x="105.7" y="58.61" width="7.55" height="7.33"/>
  <rect class="cls-9" x="105.7" y="51.29" width="7.55" height="7.32"/>
  <rect class="cls-9" x="105.7" y="43.96" width="7.55" height="7.33"/>
  <rect class="cls-7" x="105.7" y="36.63" width="7.55" height="7.33"/>
  <rect class="cls-9" x="105.7" y="29.31" width="7.55" height="7.32"/>
  <rect class="cls-6" x="105.7" y="21.98" width="7.55" height="7.33"/>
  <rect class="cls-5" x="105.7" y="14.65" width="7.55" height="7.33"/>
  <rect class="cls-5" x="105.7" y="7.33" width="7.55" height="7.32"/>
  <rect class="cls-3" x="98.15" y="124.55" width="7.55" height="7.33"/>
  <rect class="cls-8" x="98.15" y="117.23" width="7.55" height="7.32"/>
  <rect class="cls-10" x="98.15" y="109.9" width="7.55" height="7.33"/>
  <rect class="cls-10" x="98.15" y="102.57" width="7.55" height="7.33"/>
  <rect class="cls-1" x="98.15" y="95.25" width="7.55" height="7.32"/>
  <rect class="cls-4" x="98.15" y="87.92" width="7.55" height="7.33"/>
  <rect class="cls-6" x="98.15" y="80.59" width="7.55" height="7.33"/>
  <rect class="cls-1" x="98.15" y="73.27" width="7.55" height="7.32"/>
  <rect class="cls-9" x="98.15" y="65.94" width="7.55" height="7.33"/>
  <rect class="cls-9" x="98.15" y="58.61" width="7.55" height="7.33"/>
  <rect class="cls-7" x="98.15" y="51.29" width="7.55" height="7.32"/>
  <rect class="cls-7" x="98.15" y="43.96" width="7.55" height="7.33"/>
  <rect class="cls-7" x="98.15" y="36.63" width="7.55" height="7.33"/>
  <rect class="cls-6" x="98.15" y="29.31" width="7.55" height="7.32"/>
  <rect class="cls-5" x="98.15" y="21.98" width="7.55" height="7.33"/>
  <rect class="cls-5" x="98.15" y="14.65" width="7.55" height="7.33"/>
  <rect class="cls-5" x="98.15" y="7.33" width="7.55" height="7.32"/>
  <rect class="cls-9" x="98.15" y="0" width="7.55" height="7.33"/>
  <rect class="cls-3" x="90.6" y="131.88" width="7.55" height="7.33"/>
  <rect class="cls-2" x="90.6" y="124.55" width="7.55" height="7.33"/>
  <rect class="cls-2" x="90.6" y="117.23" width="7.55" height="7.32"/>
  <rect class="cls-10" x="90.6" y="109.9" width="7.55" height="7.33"/>
  <rect class="cls-1" x="90.6" y="102.57" width="7.55" height="7.33"/>
  <rect class="cls-4" x="90.6" y="95.25" width="7.55" height="7.32"/>
  <rect class="cls-6" x="90.6" y="87.92" width="7.55" height="7.33"/>
  <rect class="cls-4" x="90.6" y="80.59" width="7.55" height="7.33"/>
  <rect class="cls-5" x="90.6" y="73.27" width="7.55" height="7.32"/>
  <rect class="cls-9" x="90.6" y="65.94" width="7.55" height="7.33"/>
  <rect class="cls-7" x="90.6" y="58.61" width="7.55" height="7.33"/>
  <rect class="cls-7" x="90.6" y="51.29" width="7.55" height="7.32"/>
  <rect class="cls-9" x="90.6" y="43.96" width="7.55" height="7.33"/>
  <rect class="cls-6" x="90.6" y="36.63" width="7.55" height="7.33"/>
  <rect class="cls-5" x="90.6" y="29.31" width="7.55" height="7.32"/>
  <rect class="cls-5" x="90.6" y="21.98" width="7.55" height="7.33"/>
  <rect class="cls-5" x="90.6" y="14.65" width="7.55" height="7.33"/>
  <rect class="cls-5" x="90.6" y="7.33" width="7.55" height="7.32"/>
  <rect class="cls-9" x="90.6" y="0" width="7.55" height="7.33"/>
  <rect class="cls-2" x="83.05" y="139.21" width="7.55" height="7.32"/>
  <rect class="cls-3" x="83.05" y="131.88" width="7.55" height="7.33"/>
  <rect class="cls-2" x="83.05" y="124.55" width="7.55" height="7.33"/>
  <rect class="cls-10" x="83.05" y="117.23" width="7.55" height="7.32"/>
  <rect class="cls-1" x="83.05" y="109.9" width="7.55" height="7.33"/>
  <rect class="cls-1" x="83.05" y="102.57" width="7.55" height="7.33"/>
  <rect class="cls-6" x="83.05" y="95.25" width="7.55" height="7.32"/>
  <rect class="cls-1" x="83.05" y="87.92" width="7.55" height="7.33"/>
  <rect class="cls-5" x="83.05" y="80.59" width="7.55" height="7.33"/>
  <rect class="cls-6" x="83.05" y="73.27" width="7.55" height="7.32"/>
  <rect class="cls-7" x="83.05" y="65.94" width="7.55" height="7.33"/>
  <rect class="cls-7" x="83.05" y="58.61" width="7.55" height="7.33"/>
  <rect class="cls-9" x="83.05" y="51.29" width="7.55" height="7.32"/>
  <rect class="cls-9" x="83.05" y="43.96" width="7.55" height="7.33"/>
  <rect class="cls-5" x="83.05" y="36.63" width="7.55" height="7.33"/>
  <rect class="cls-5" x="83.05" y="29.31" width="7.55" height="7.32"/>
  <rect class="cls-5" x="83.05" y="21.98" width="7.55" height="7.33"/>
  <rect class="cls-5" x="83.05" y="14.65" width="7.55" height="7.33"/>
  <rect class="cls-9" x="83.05" y="7.33" width="7.55" height="7.32"/>
  <rect class="cls-8" x="75.5" y="146.53" width="7.55" height="7.33"/>
  <rect class="cls-8" x="75.5" y="139.21" width="7.55" height="7.32"/>
  <rect class="cls-8" x="75.5" y="131.88" width="7.55" height="7.33"/>
  <rect class="cls-10" x="75.5" y="124.55" width="7.55" height="7.33"/>
  <rect class="cls-4" x="75.5" y="117.23" width="7.55" height="7.32"/>
  <rect class="cls-4" x="75.5" y="109.9" width="7.55" height="7.33"/>
  <rect class="cls-6" x="75.5" y="102.57" width="7.55" height="7.33"/>
  <rect class="cls-4" x="75.5" y="95.25" width="7.55" height="7.32"/>
  <rect class="cls-5" x="75.5" y="87.92" width="7.55" height="7.33"/>
  <rect class="cls-6" x="75.5" y="80.59" width="7.55" height="7.33"/>
  <rect class="cls-7" x="75.5" y="73.27" width="7.55" height="7.32"/>
  <rect class="cls-7" x="75.5" y="65.94" width="7.55" height="7.33"/>
  <rect class="cls-9" x="75.5" y="58.61" width="7.55" height="7.33"/>
  <rect class="cls-9" x="75.5" y="51.29" width="7.55" height="7.32"/>
  <rect class="cls-5" x="75.5" y="43.96" width="7.55" height="7.33"/>
  <rect class="cls-5" x="75.5" y="36.63" width="7.55" height="7.33"/>
  <rect class="cls-5" x="75.5" y="29.31" width="7.55" height="7.32"/>
  <rect class="cls-5" x="75.5" y="21.98" width="7.55" height="7.33"/>
  <rect class="cls-9" x="75.5" y="14.65" width="7.55" height="7.33"/>
  <rect class="cls-8" x="67.95" y="146.53" width="7.55" height="7.33"/>
  <rect class="cls-8" x="67.95" y="139.21" width="7.55" height="7.32"/>
  <rect class="cls-10" x="67.95" y="131.88" width="7.55" height="7.33"/>
  <rect class="cls-10" x="67.95" y="124.55" width="7.55" height="7.33"/>
  <rect class="cls-1" x="67.95" y="117.23" width="7.55" height="7.32"/>
  <rect class="cls-6" x="67.95" y="109.9" width="7.55" height="7.33"/>
  <rect class="cls-4" x="67.95" y="102.57" width="7.55" height="7.33"/>
  <rect class="cls-5" x="67.95" y="95.25" width="7.55" height="7.32"/>
  <rect class="cls-6" x="67.95" y="87.92" width="7.55" height="7.33"/>
  <rect class="cls-7" x="67.95" y="80.59" width="7.55" height="7.33"/>
  <rect class="cls-7" x="67.95" y="73.27" width="7.55" height="7.32"/>
  <rect class="cls-9" x="67.95" y="65.94" width="7.55" height="7.33"/>
  <rect class="cls-9" x="67.95" y="58.61" width="7.55" height="7.33"/>
  <rect class="cls-5" x="67.95" y="51.29" width="7.55" height="7.32"/>
  <rect class="cls-5" x="67.95" y="43.96" width="7.55" height="7.33"/>
  <rect class="cls-5" x="67.95" y="36.63" width="7.55" height="7.33"/>
  <rect class="cls-5" x="67.95" y="29.31" width="7.55" height="7.32"/>
  <rect class="cls-9" x="67.95" y="21.98" width="7.55" height="7.33"/>
  <rect class="cls-2" x="60.4" y="146.53" width="7.55" height="7.33"/>
  <rect class="cls-8" x="60.4" y="139.21" width="7.55" height="7.32"/>
  <rect class="cls-8" x="60.4" y="131.88" width="7.55" height="7.33"/>
  <rect class="cls-10" x="60.4" y="124.55" width="7.55" height="7.33"/>
  <rect class="cls-1" x="60.4" y="117.23" width="7.55" height="7.32"/>
  <rect class="cls-4" x="60.4" y="109.9" width="7.55" height="7.33"/>
  <rect class="cls-6" x="60.4" y="102.57" width="7.55" height="7.33"/>
  <rect class="cls-4" x="60.4" y="95.25" width="7.55" height="7.32"/>
  <rect class="cls-5" x="60.4" y="87.92" width="7.55" height="7.33"/>
  <rect class="cls-9" x="60.4" y="80.59" width="7.55" height="7.33"/>
  <rect class="cls-9" x="60.4" y="73.27" width="7.55" height="7.32"/>
  <rect class="cls-9" x="60.4" y="65.94" width="7.55" height="7.33"/>
  <rect class="cls-5" x="60.4" y="58.61" width="7.55" height="7.33"/>
  <rect class="cls-5" x="60.4" y="51.29" width="7.55" height="7.32"/>
  <rect class="cls-5" x="60.4" y="43.96" width="7.55" height="7.33"/>
  <rect class="cls-5" x="60.4" y="36.63" width="7.55" height="7.33"/>
  <rect class="cls-9" x="60.4" y="29.31" width="7.55" height="7.32"/>
  <rect class="cls-9" x="60.4" y="21.98" width="7.55" height="7.33"/>
  <rect class="cls-9" x="60.4" y="14.65" width="7.55" height="7.33"/>
  <rect class="cls-2" x="52.85" y="139.21" width="7.55" height="7.32"/>
  <rect class="cls-8" x="52.85" y="131.88" width="7.55" height="7.33"/>
  <rect class="cls-10" x="52.85" y="124.55" width="7.55" height="7.33"/>
  <rect class="cls-10" x="52.85" y="117.23" width="7.55" height="7.32"/>
  <rect class="cls-10" x="52.85" y="109.9" width="7.55" height="7.33"/>
  <rect class="cls-1" x="52.85" y="102.57" width="7.55" height="7.33"/>
  <rect class="cls-6" x="52.85" y="95.25" width="7.55" height="7.32"/>
  <rect class="cls-1" x="52.85" y="87.92" width="7.55" height="7.33"/>
  <rect class="cls-5" x="52.85" y="80.59" width="7.55" height="7.33"/>
  <rect class="cls-9" x="52.85" y="73.27" width="7.55" height="7.32"/>
  <rect class="cls-5" x="52.85" y="65.94" width="7.55" height="7.33"/>
  <rect class="cls-5" x="52.85" y="58.61" width="7.55" height="7.33"/>
  <rect class="cls-5" x="52.85" y="51.29" width="7.55" height="7.32"/>
  <rect class="cls-5" x="52.85" y="43.96" width="7.55" height="7.33"/>
  <rect class="cls-6" x="52.85" y="36.63" width="7.55" height="7.33"/>
  <rect class="cls-9" x="52.85" y="29.31" width="7.55" height="7.32"/>
  <rect class="cls-9" x="52.85" y="21.98" width="7.55" height="7.33"/>
  <rect class="cls-9" x="52.85" y="14.65" width="7.55" height="7.33"/>
  <rect class="cls-9" x="52.85" y="7.33" width="7.55" height="7.32"/>
  <rect class="cls-3" x="45.3" y="131.88" width="7.55" height="7.33"/>
  <rect class="cls-2" x="45.3" y="124.55" width="7.55" height="7.33"/>
  <rect class="cls-10" x="45.3" y="117.23" width="7.55" height="7.32"/>
  <rect class="cls-10" x="45.3" y="109.9" width="7.55" height="7.33"/>
  <rect class="cls-1" x="45.3" y="102.57" width="7.55" height="7.33"/>
  <rect class="cls-4" x="45.3" y="95.25" width="7.55" height="7.32"/>
  <rect class="cls-6" x="45.3" y="87.92" width="7.55" height="7.33"/>
  <rect class="cls-4" x="45.3" y="80.59" width="7.55" height="7.33"/>
  <rect class="cls-5" x="45.3" y="73.27" width="7.55" height="7.32"/>
  <rect class="cls-5" x="45.3" y="65.94" width="7.55" height="7.33"/>
  <rect class="cls-5" x="45.3" y="58.61" width="7.55" height="7.33"/>
  <rect class="cls-5" x="45.3" y="51.29" width="7.55" height="7.32"/>
  <rect class="cls-6" x="45.3" y="43.96" width="7.55" height="7.33"/>
  <rect class="cls-9" x="45.3" y="36.63" width="7.55" height="7.33"/>
  <rect class="cls-9" x="45.3" y="29.31" width="7.55" height="7.32"/>
  <rect class="cls-9" x="45.3" y="21.98" width="7.55" height="7.33"/>
  <rect class="cls-9" x="45.3" y="14.65" width="7.55" height="7.33"/>
  <rect class="cls-9" x="45.3" y="7.33" width="7.55" height="7.32"/>
  <rect class="cls-9" x="45.3" y="0" width="7.55" height="7.33"/>
  <rect class="cls-3" x="37.75" y="124.55" width="7.55" height="7.33"/>
  <rect class="cls-2" x="37.75" y="117.23" width="7.55" height="7.32"/>
  <rect class="cls-8" x="37.75" y="109.9" width="7.55" height="7.33"/>
  <rect class="cls-10" x="37.75" y="102.57" width="7.55" height="7.33"/>
  <rect class="cls-1" x="37.75" y="95.25" width="7.55" height="7.32"/>
  <rect class="cls-4" x="37.75" y="87.92" width="7.55" height="7.33"/>
  <rect class="cls-6" x="37.75" y="80.59" width="7.55" height="7.33"/>
  <rect class="cls-1" x="37.75" y="73.27" width="7.55" height="7.32"/>
  <rect class="cls-5" x="37.75" y="65.94" width="7.55" height="7.33"/>
  <rect class="cls-5" x="37.75" y="58.61" width="7.55" height="7.33"/>
  <rect class="cls-6" x="37.75" y="51.29" width="7.55" height="7.32"/>
  <rect class="cls-9" x="37.75" y="43.96" width="7.55" height="7.33"/>
  <rect class="cls-9" x="37.75" y="36.63" width="7.55" height="7.33"/>
  <rect class="cls-9" x="37.75" y="29.31" width="7.55" height="7.32"/>
  <rect class="cls-9" x="37.75" y="21.98" width="7.55" height="7.33"/>
  <rect class="cls-9" x="37.75" y="14.65" width="7.55" height="7.33"/>
  <rect class="cls-9" x="37.75" y="7.33" width="7.55" height="7.32"/>
  <rect class="cls-9" x="37.75" y="0" width="7.55" height="7.33"/>
  <rect class="cls-2" x="30.2" y="117.23" width="7.55" height="7.32"/>
  <rect class="cls-8" x="30.2" y="109.9" width="7.55" height="7.33"/>
  <rect class="cls-10" x="30.2" y="102.57" width="7.55" height="7.33"/>
  <rect class="cls-10" x="30.2" y="95.25" width="7.55" height="7.32"/>
  <rect class="cls-1" x="30.2" y="87.92" width="7.55" height="7.33"/>
  <rect class="cls-1" x="30.2" y="80.59" width="7.55" height="7.33"/>
  <rect class="cls-6" x="30.2" y="73.27" width="7.55" height="7.32"/>
  <rect class="cls-4" x="30.2" y="65.94" width="7.55" height="7.33"/>
  <rect class="cls-5" x="30.2" y="58.61" width="7.55" height="7.33"/>
  <rect class="cls-9" x="30.2" y="51.29" width="7.55" height="7.32"/>
  <rect class="cls-9" x="30.2" y="43.96" width="7.55" height="7.33"/>
  <rect class="cls-9" x="30.2" y="36.63" width="7.55" height="7.33"/>
  <rect class="cls-9" x="30.2" y="29.31" width="7.55" height="7.32"/>
  <rect class="cls-9" x="30.2" y="21.98" width="7.55" height="7.33"/>
  <rect class="cls-9" x="30.2" y="14.65" width="7.55" height="7.33"/>
  <rect class="cls-9" x="30.2" y="7.33" width="7.55" height="7.32"/>
  <rect class="cls-8" x="22.65" y="109.9" width="7.55" height="7.33"/>
  <rect class="cls-8" x="22.65" y="102.57" width="7.55" height="7.33"/>
  <rect class="cls-10" x="22.65" y="95.25" width="7.55" height="7.32"/>
  <rect class="cls-10" x="22.65" y="87.92" width="7.55" height="7.33"/>
  <rect class="cls-1" x="22.65" y="80.59" width="7.55" height="7.33"/>
  <rect class="cls-4" x="22.65" y="73.27" width="7.55" height="7.32"/>
  <rect class="cls-6" x="22.65" y="65.94" width="7.55" height="7.33"/>
  <rect class="cls-1" x="22.65" y="58.61" width="7.55" height="7.33"/>
  <rect class="cls-5" x="22.65" y="51.29" width="7.55" height="7.32"/>
  <rect class="cls-5" x="22.65" y="43.96" width="7.55" height="7.33"/>
  <rect class="cls-9" x="22.65" y="36.63" width="7.55" height="7.33"/>
  <rect class="cls-9" x="22.65" y="29.31" width="7.55" height="7.32"/>
  <rect class="cls-9" x="22.65" y="21.98" width="7.55" height="7.33"/>
  <rect class="cls-9" x="22.65" y="14.65" width="7.55" height="7.33"/>
  <rect class="cls-9" x="22.65" y="7.33" width="7.55" height="7.32"/>
  <rect class="cls-3" x="15.1" y="102.57" width="7.55" height="7.33"/>
  <rect class="cls-2" x="15.1" y="95.25" width="7.55" height="7.32"/>
  <rect class="cls-8" x="15.1" y="87.92" width="7.55" height="7.33"/>
  <rect class="cls-10" x="15.1" y="80.59" width="7.55" height="7.33"/>
  <rect class="cls-4" x="15.1" y="73.27" width="7.55" height="7.32"/>
  <rect class="cls-1" x="15.1" y="65.94" width="7.55" height="7.33"/>
  <rect class="cls-1" x="15.1" y="58.61" width="7.55" height="7.33"/>
  <rect class="cls-1" x="15.1" y="51.29" width="7.55" height="7.32"/>
  <rect class="cls-5" x="15.1" y="43.96" width="7.55" height="7.33"/>
  <rect class="cls-5" x="15.1" y="36.63" width="7.55" height="7.33"/>
  <rect class="cls-5" x="15.1" y="29.31" width="7.55" height="7.32"/>
  <rect class="cls-9" x="15.1" y="21.98" width="7.55" height="7.33"/>
  <rect class="cls-8" x="15.1" y="14.65" width="7.55" height="7.33"/>
  <rect class="cls-3" x="7.55" y="95.25" width="7.55" height="7.32"/>
  <rect class="cls-2" x="7.55" y="87.92" width="7.55" height="7.33"/>
  <rect class="cls-8" x="7.55" y="80.59" width="7.55" height="7.33"/>
  <rect class="cls-8" x="7.55" y="73.27" width="7.55" height="7.32"/>
  <rect class="cls-10" x="7.55" y="65.94" width="7.55" height="7.33"/>
  <rect class="cls-10" x="7.55" y="58.61" width="7.55" height="7.33"/>
  <rect class="cls-10" x="7.55" y="51.29" width="7.55" height="7.32"/>
  <rect class="cls-10" x="7.55" y="43.96" width="7.55" height="7.33"/>
  <rect class="cls-10" x="7.55" y="36.63" width="7.55" height="7.33"/>
  <rect class="cls-10" x="7.55" y="29.31" width="7.55" height="7.32"/>
  <rect class="cls-8" x="7.55" y="21.98" width="7.55" height="7.33"/>
  <rect class="cls-8" x="0" y="87.92" width="7.55" height="7.33"/>
  <rect class="cls-8" x="0" y="80.59" width="7.55" height="7.33"/>
  <rect class="cls-8" x="0" y="73.27" width="7.55" height="7.32"/>
  <rect class="cls-8" x="0" y="65.94" width="7.55" height="7.33"/>
  <rect class="cls-8" x="0" y="58.61" width="7.55" height="7.33"/>
  <rect class="cls-2" x="0" y="51.29" width="7.55" height="7.32"/>
  <rect class="cls-3" x="0" y="43.96" width="7.55" height="7.33"/>
  <rect class="cls-3" x="0" y="36.63" width="7.55" height="7.33"/>
  <rect class="cls-2" x="0" y="29.31" width="7.55" height="7.32"/>
</svg>