<?xml version="1.0" encoding="UTF-8"?>
<svg id="Layer_3" data-name="Layer 3" xmlns="http://www.w3.org/2000/svg" viewBox="0 0 150 150">
  <defs>
    <style>
      .cls-1 {
        fill: #44362c;
      }

      .cls-2 {
        fill: #f77b0b;
      }

      .cls-3 {
        fill: #e54600;
      }

      .cls-4 {
        fill: #68625e;
      }

      .cls-5 {
        fill: #544840;
      }

      .cls-6 {
        fill: #ffd278;
      }

      .cls-7 {
        fill: #938982;
      }

      .cls-8 {
        fill: #ffa348;
      }
    </style>
  </defs>
  <rect class="cls-3" x="143" y="97.5" width="7.5" height="7.5"/>
  <rect class="cls-3" x="143" y="90" width="7.5" height="7.5"/>
  <rect class="cls-3" x="143" y="82.5" width="7.5" height="7.5"/>
  <rect class="cls-3" x="143" y="75" width="7.5" height="7.5"/>
  <rect class="cls-3" x="143" y="67.5" width="7.5" height="7.5"/>
  <rect class="cls-3" x="143" y="60" width="7.5" height="7.5"/>
  <rect class="cls-3" x="143" y="52.5" width="7.5" height="7.5"/>
  <rect class="cls-3" x="143" y="45" width="7.5" height="7.5"/>
  <rect class="cls-3" x="143" y="37.5" width="7.5" height="7.5"/>
  <rect class="cls-3" x="143" y="30" width="7.5" height="7.5"/>
  <rect class="cls-3" x="135.5" y="105" width="7.5" height="7.5"/>
  <rect class="cls-3" x="135.5" y="97.5" width="7.5" height="7.5"/>
  <rect class="cls-2" x="135.5" y="90" width="7.5" height="7.5"/>
  <rect class="cls-2" x="135.5" y="82.5" width="7.5" height="7.5"/>
  <rect class="cls-2" x="135.5" y="75" width="7.5" height="7.5"/>
  <rect class="cls-2" x="135.5" y="67.5" width="7.5" height="7.5"/>
  <rect class="cls-2" x="135.5" y="60" width="7.5" height="7.5"/>
  <rect class="cls-2" x="135.5" y="52.5" width="7.5" height="7.5"/>
  <rect class="cls-2" x="135.5" y="45" width="7.5" height="7.5"/>
  <rect class="cls-2" x="135.5" y="37.5" width="7.5" height="7.5"/>
  <rect class="cls-2" x="135.5" y="30" width="7.5" height="7.5"/>
  <rect class="cls-3" x="135.5" y="22.5" width="7.5" height="7.5"/>
  <rect class="cls-3" x="128" y="120" width="7.5" height="7.5"/>
  <rect class="cls-3" x="128" y="112.5" width="7.5" height="7.5"/>
  <rect class="cls-3" x="128" y="105" width="7.5" height="7.5"/>
  <rect class="cls-2" x="128" y="97.5" width="7.5" height="7.5"/>
  <rect class="cls-8" x="128" y="90" width="7.5" height="7.5"/>
  <rect class="cls-8" x="128" y="82.5" width="7.5" height="7.5"/>
  <rect class="cls-8" x="128" y="75" width="7.5" height="7.5"/>
  <rect class="cls-8" x="128" y="67.5" width="7.5" height="7.5"/>
  <rect class="cls-8" x="128" y="60" width="7.5" height="7.5"/>
  <rect class="cls-8" x="128" y="52.5" width="7.5" height="7.5"/>
  <rect class="cls-8" x="128" y="45" width="7.5" height="7.5"/>
  <rect class="cls-8" x="128" y="37.5" width="7.5" height="7.5"/>
  <rect class="cls-2" x="128" y="30" width="7.5" height="7.5"/>
  <rect class="cls-3" x="128" y="22.5" width="7.5" height="7.5"/>
  <rect class="cls-3" x="120.5" y="120" width="7.5" height="7.5"/>
  <rect class="cls-2" x="120.5" y="112.5" width="7.5" height="7.5"/>
  <rect class="cls-2" x="120.5" y="105" width="7.5" height="7.5"/>
  <rect class="cls-8" x="120.5" y="97.5" width="7.5" height="7.5"/>
  <rect class="cls-6" x="120.5" y="90" width="7.5" height="7.5"/>
  <rect class="cls-6" x="120.5" y="82.5" width="7.5" height="7.5"/>
  <rect class="cls-6" x="120.5" y="75" width="7.5" height="7.5"/>
  <rect class="cls-6" x="120.5" y="67.5" width="7.5" height="7.5"/>
  <rect class="cls-6" x="120.5" y="60" width="7.5" height="7.5"/>
  <rect class="cls-6" x="120.5" y="52.5" width="7.5" height="7.5"/>
  <rect class="cls-6" x="120.5" y="45" width="7.5" height="7.5"/>
  <rect class="cls-8" x="120.5" y="37.5" width="7.5" height="7.5"/>
  <rect class="cls-2" x="120.5" y="30" width="7.5" height="7.5"/>
  <rect class="cls-3" x="120.5" y="22.5" width="7.5" height="7.5"/>
  <rect class="cls-3" x="120.5" y="15" width="7.5" height="7.5"/>
  <rect class="cls-3" x="113" y="120" width="7.5" height="7.5"/>
  <rect class="cls-2" x="113" y="112.5" width="7.5" height="7.5"/>
  <rect class="cls-8" x="113" y="105" width="7.5" height="7.5"/>
  <rect class="cls-6" x="113" y="97.5" width="7.5" height="7.5"/>
  <rect class="cls-6" x="113" y="90" width="7.5" height="7.5"/>
  <rect class="cls-1" x="113" y="82.5" width="7.5" height="7.5"/>
  <rect class="cls-1" x="113" y="75" width="7.5" height="7.5"/>
  <rect class="cls-1" x="113" y="67.5" width="7.5" height="7.5"/>
  <rect class="cls-1" x="113" y="60" width="7.5" height="7.5"/>
  <rect class="cls-1" x="113" y="52.5" width="7.5" height="7.5"/>
  <rect class="cls-6" x="113" y="45" width="7.5" height="7.5"/>
  <rect class="cls-6" x="113" y="37.5" width="7.5" height="7.5"/>
  <rect class="cls-8" x="113" y="30" width="7.5" height="7.5"/>
  <rect class="cls-2" x="113" y="22.5" width="7.5" height="7.5"/>
  <rect class="cls-3" x="113" y="15" width="7.5" height="7.5"/>
  <rect class="cls-3" x="113" y="7.5" width="7.5" height="7.5"/>
  <rect class="cls-3" x="105.5" y="135" width="7.5" height="7.5"/>
  <rect class="cls-3" x="105.5" y="127.5" width="7.5" height="7.5"/>
  <rect class="cls-3" x="105.5" y="120" width="7.5" height="7.5"/>
  <rect class="cls-2" x="105.5" y="112.5" width="7.5" height="7.5"/>
  <rect class="cls-8" x="105.5" y="105" width="7.5" height="7.5"/>
  <rect class="cls-6" x="105.5" y="97.5" width="7.5" height="7.5"/>
  <rect class="cls-4" x="105.5" y="90" width="7.5" height="7.5"/>
  <rect class="cls-1" x="105.5" y="82.5" width="7.5" height="7.5"/>
  <rect class="cls-4" x="105.5" y="75" width="7.5" height="7.5"/>
  <rect class="cls-1" x="105.5" y="67.5" width="7.5" height="7.5"/>
  <rect class="cls-4" x="105.5" y="60" width="7.5" height="7.5"/>
  <rect class="cls-5" x="105.5" y="52.5" width="7.5" height="7.5"/>
  <rect class="cls-5" x="105.5" y="45" width="7.5" height="7.5"/>
  <rect class="cls-6" x="105.5" y="37.5" width="7.5" height="7.5"/>
  <rect class="cls-6" x="105.5" y="30" width="7.5" height="7.5"/>
  <rect class="cls-8" x="105.5" y="22.5" width="7.5" height="7.5"/>
  <rect class="cls-2" x="105.5" y="15" width="7.5" height="7.5"/>
  <rect class="cls-3" x="105.5" y="7.5" width="7.5" height="7.5"/>
  <rect class="cls-3" x="98" y="142.5" width="7.5" height="7.5"/>
  <rect class="cls-3" x="98" y="135" width="7.5" height="7.5"/>
  <rect class="cls-2" x="98" y="127.5" width="7.5" height="7.5"/>
  <rect class="cls-2" x="98" y="120" width="7.5" height="7.5"/>
  <rect class="cls-8" x="98" y="112.5" width="7.5" height="7.5"/>
  <rect class="cls-6" x="98" y="105" width="7.5" height="7.5"/>
  <rect class="cls-6" x="98" y="97.5" width="7.5" height="7.5"/>
  <rect class="cls-4" x="98" y="90" width="7.5" height="7.5"/>
  <rect class="cls-6" x="98" y="82.5" width="7.5" height="7.5"/>
  <rect class="cls-4" x="98" y="75" width="7.5" height="7.5"/>
  <rect class="cls-4" x="98" y="67.5" width="7.5" height="7.5"/>
  <rect class="cls-7" x="98" y="60" width="7.5" height="7.5"/>
  <rect class="cls-4" x="98" y="52.5" width="7.5" height="7.5"/>
  <rect class="cls-4" x="98" y="45" width="7.5" height="7.5"/>
  <rect class="cls-4" x="98" y="37.5" width="7.5" height="7.5"/>
  <rect class="cls-6" x="98" y="30" width="7.5" height="7.5"/>
  <rect class="cls-8" x="98" y="22.5" width="7.5" height="7.5"/>
  <rect class="cls-2" x="98" y="15" width="7.5" height="7.5"/>
  <rect class="cls-3" x="98" y="7.5" width="7.5" height="7.5"/>
  <rect class="cls-3" x="90.5" y="142.5" width="7.5" height="7.5"/>
  <rect class="cls-2" x="90.5" y="135" width="7.5" height="7.5"/>
  <rect class="cls-8" x="90.5" y="127.5" width="7.5" height="7.5"/>
  <rect class="cls-6" x="90.5" y="120" width="7.5" height="7.5"/>
  <rect class="cls-6" x="90.5" y="112.5" width="7.5" height="7.5"/>
  <rect class="cls-5" x="90.5" y="105" width="7.5" height="7.5"/>
  <rect class="cls-6" x="90.5" y="97.5" width="7.5" height="7.5"/>
  <rect class="cls-6" x="90.5" y="90" width="7.5" height="7.5"/>
  <rect class="cls-6" x="90.5" y="82.5" width="7.5" height="7.5"/>
  <rect class="cls-4" x="90.5" y="75" width="7.5" height="7.5"/>
  <rect class="cls-5" x="90.5" y="67.5" width="7.5" height="7.5"/>
  <rect class="cls-7" x="90.5" y="60" width="7.5" height="7.5"/>
  <rect class="cls-7" x="90.5" y="52.5" width="7.5" height="7.5"/>
  <rect class="cls-7" x="90.5" y="45" width="7.5" height="7.5"/>
  <rect class="cls-4" x="90.5" y="37.5" width="7.5" height="7.5"/>
  <rect class="cls-4" x="90.5" y="30" width="7.5" height="7.5"/>
  <rect class="cls-6" x="90.5" y="22.5" width="7.5" height="7.5"/>
  <rect class="cls-8" x="90.5" y="15" width="7.5" height="7.5"/>
  <rect class="cls-3" x="90.5" y="7.5" width="7.5" height="7.5"/>
  <rect class="cls-3" x="90.5" width="7.5" height="7.5"/>
  <rect class="cls-3" x="83" y="142.5" width="7.5" height="7.5"/>
  <rect class="cls-2" x="83" y="135" width="7.5" height="7.5"/>
  <rect class="cls-8" x="83" y="127.5" width="7.5" height="7.5"/>
  <rect class="cls-6" x="83" y="120" width="7.5" height="7.5"/>
  <rect class="cls-4" x="83" y="112.5" width="7.5" height="7.5"/>
  <rect class="cls-5" x="83" y="105" width="7.5" height="7.5"/>
  <rect class="cls-4" x="83" y="97.5" width="7.5" height="7.5"/>
  <rect class="cls-6" x="83" y="90" width="7.5" height="7.5"/>
  <rect class="cls-6" x="83" y="82.5" width="7.5" height="7.5"/>
  <rect class="cls-4" x="83" y="75" width="7.5" height="7.5"/>
  <rect class="cls-5" x="83" y="67.5" width="7.5" height="7.5"/>
  <rect class="cls-7" x="83" y="60" width="7.5" height="7.5"/>
  <rect class="cls-7" x="83" y="52.5" width="7.5" height="7.5"/>
  <rect class="cls-7" x="83" y="45" width="7.5" height="7.5"/>
  <rect class="cls-4" x="83" y="37.5" width="7.5" height="7.5"/>
  <rect class="cls-4" x="83" y="30" width="7.5" height="7.5"/>
  <rect class="cls-4" x="83" y="22.5" width="7.5" height="7.5"/>
  <rect class="cls-8" x="83" y="15" width="7.5" height="7.5"/>
  <rect class="cls-2" x="83" y="7.5" width="7.5" height="7.5"/>
  <rect class="cls-3" x="83" width="7.5" height="7.5"/>
  <rect class="cls-3" x="75.5" y="142.5" width="7.5" height="7.5"/>
  <rect class="cls-2" x="75.5" y="135" width="7.5" height="7.5"/>
  <rect class="cls-8" x="75.5" y="127.5" width="7.5" height="7.5"/>
  <rect class="cls-6" x="75.5" y="120" width="7.5" height="7.5"/>
  <rect class="cls-5" x="75.5" y="112.5" width="7.5" height="7.5"/>
  <rect class="cls-5" x="75.5" y="105" width="7.5" height="7.5"/>
  <rect class="cls-5" x="75.5" y="97.5" width="7.5" height="7.5"/>
  <rect class="cls-4" x="75.5" y="90" width="7.5" height="7.5"/>
  <rect class="cls-4" x="75.5" y="82.5" width="7.5" height="7.5"/>
  <rect class="cls-4" x="75.5" y="75" width="7.5" height="7.5"/>
  <rect class="cls-7" x="75.5" y="67.5" width="7.5" height="7.5"/>
  <rect class="cls-7" x="75.5" y="60" width="7.5" height="7.5"/>
  <rect class="cls-5" x="75.5" y="52.5" width="7.5" height="7.5"/>
  <rect class="cls-4" x="75.5" y="45" width="7.5" height="7.5"/>
  <rect class="cls-7" x="75.5" y="37.5" width="7.5" height="7.5"/>
  <rect class="cls-4" x="75.5" y="30" width="7.5" height="7.5"/>
  <rect class="cls-4" x="75.5" y="22.5" width="7.5" height="7.5"/>
  <rect class="cls-8" x="75.5" y="15" width="7.5" height="7.5"/>
  <rect class="cls-2" x="75.5" y="7.5" width="7.5" height="7.5"/>
  <rect class="cls-3" x="75.5" width="7.5" height="7.5"/>
  <rect class="cls-3" x="68" y="142.5" width="7.5" height="7.5"/>
  <rect class="cls-2" x="68" y="135" width="7.5" height="7.5"/>
  <rect class="cls-8" x="68" y="127.5" width="7.5" height="7.5"/>
  <rect class="cls-6" x="68" y="120" width="7.5" height="7.5"/>
  <rect class="cls-5" x="68" y="112.5" width="7.5" height="7.5"/>
  <rect class="cls-4" x="68" y="105" width="7.5" height="7.5"/>
  <rect class="cls-4" x="68" y="97.5" width="7.5" height="7.5"/>
  <rect class="cls-1" x="68" y="90" width="7.5" height="7.5"/>
  <rect class="cls-1" x="68" y="82.5" width="7.5" height="7.5"/>
  <rect class="cls-4" x="68" y="75" width="7.5" height="7.5"/>
  <rect class="cls-5" x="68" y="67.5" width="7.5" height="7.5"/>
  <rect class="cls-5" x="68" y="60" width="7.5" height="7.5"/>
  <rect class="cls-5" x="68" y="52.5" width="7.5" height="7.5"/>
  <rect class="cls-4" x="68" y="45" width="7.5" height="7.5"/>
  <rect class="cls-4" x="68" y="37.5" width="7.5" height="7.5"/>
  <rect class="cls-5" x="68" y="30" width="7.5" height="7.5"/>
  <rect class="cls-4" x="68" y="22.5" width="7.5" height="7.5"/>
  <rect class="cls-8" x="68" y="15" width="7.5" height="7.5"/>
  <rect class="cls-2" x="68" y="7.5" width="7.5" height="7.5"/>
  <rect class="cls-3" x="68" width="7.5" height="7.5"/>
  <rect class="cls-3" x="60.5" y="142.5" width="7.5" height="7.5"/>
  <rect class="cls-2" x="60.5" y="135" width="7.5" height="7.5"/>
  <rect class="cls-8" x="60.5" y="127.5" width="7.5" height="7.5"/>
  <rect class="cls-6" x="60.5" y="120" width="7.5" height="7.5"/>
  <rect class="cls-5" x="60.5" y="112.5" width="7.5" height="7.5"/>
  <rect class="cls-4" x="60.5" y="105" width="7.5" height="7.5"/>
  <rect class="cls-4" x="60.5" y="97.5" width="7.5" height="7.5"/>
  <rect class="cls-7" x="60.5" y="90" width="7.5" height="7.5"/>
  <rect class="cls-7" x="60.5" y="82.5" width="7.5" height="7.5"/>
  <rect class="cls-1" x="60.5" y="75" width="7.5" height="7.5"/>
  <rect class="cls-4" x="60.5" y="67.5" width="7.5" height="7.5"/>
  <rect class="cls-7" x="60.5" y="60" width="7.5" height="7.5"/>
  <rect class="cls-4" x="60.5" y="52.5" width="7.5" height="7.5"/>
  <rect class="cls-5" x="60.5" y="45" width="7.5" height="7.5"/>
  <rect class="cls-5" x="60.5" y="37.5" width="7.5" height="7.5"/>
  <rect class="cls-5" x="60.5" y="30" width="7.5" height="7.5"/>
  <rect class="cls-4" x="60.5" y="22.5" width="7.5" height="7.5"/>
  <rect class="cls-8" x="60.5" y="15" width="7.5" height="7.5"/>
  <rect class="cls-2" x="60.5" y="7.5" width="7.5" height="7.5"/>
  <rect class="cls-3" x="60.5" width="7.5" height="7.5"/>
  <rect class="cls-3" x="53" y="142.5" width="7.5" height="7.5"/>
  <rect class="cls-2" x="53" y="135" width="7.5" height="7.5"/>
  <rect class="cls-8" x="53" y="127.5" width="7.5" height="7.5"/>
  <rect class="cls-6" x="53" y="120" width="7.5" height="7.5"/>
  <rect class="cls-6" x="53" y="112.5" width="7.5" height="7.5"/>
  <rect class="cls-4" x="53" y="105" width="7.5" height="7.5"/>
  <rect class="cls-4" x="53" y="97.5" width="7.5" height="7.5"/>
  <rect class="cls-7" x="53" y="90" width="7.5" height="7.5"/>
  <rect class="cls-7" x="53" y="82.5" width="7.5" height="7.5"/>
  <rect class="cls-7" x="53" y="75" width="7.5" height="7.5"/>
  <rect class="cls-4" x="53" y="67.5" width="7.5" height="7.5"/>
  <rect class="cls-4" x="53" y="60" width="7.5" height="7.5"/>
  <rect class="cls-4" x="53" y="52.5" width="7.5" height="7.5"/>
  <rect class="cls-6" x="53" y="45" width="7.5" height="7.5"/>
  <rect class="cls-6" x="53" y="37.5" width="7.5" height="7.5"/>
  <rect class="cls-4" x="53" y="30" width="7.5" height="7.5"/>
  <rect class="cls-6" x="53" y="22.5" width="7.5" height="7.5"/>
  <rect class="cls-8" x="53" y="15" width="7.5" height="7.5"/>
  <rect class="cls-2" x="53" y="7.5" width="7.5" height="7.5"/>
  <rect class="cls-3" x="53" width="7.5" height="7.5"/>
  <rect class="cls-3" x="45.5" y="142.5" width="7.5" height="7.5"/>
  <rect class="cls-2" x="45.5" y="135" width="7.5" height="7.5"/>
  <rect class="cls-8" x="45.5" y="127.5" width="7.5" height="7.5"/>
  <rect class="cls-6" x="45.5" y="120" width="7.5" height="7.5"/>
  <rect class="cls-6" x="45.5" y="112.5" width="7.5" height="7.5"/>
  <rect class="cls-4" x="45.5" y="105" width="7.5" height="7.5"/>
  <rect class="cls-4" x="45.5" y="97.5" width="7.5" height="7.5"/>
  <rect class="cls-1" x="45.5" y="90" width="7.5" height="7.5"/>
  <rect class="cls-7" x="45.5" y="82.5" width="7.5" height="7.5"/>
  <rect class="cls-4" x="45.5" y="75" width="7.5" height="7.5"/>
  <rect class="cls-4" x="45.5" y="67.5" width="7.5" height="7.5"/>
  <rect class="cls-4" x="45.5" y="60" width="7.5" height="7.5"/>
  <rect class="cls-4" x="45.5" y="52.5" width="7.5" height="7.5"/>
  <rect class="cls-6" x="45.5" y="45" width="7.5" height="7.5"/>
  <rect class="cls-6" x="45.5" y="37.5" width="7.5" height="7.5"/>
  <rect class="cls-6" x="45.5" y="30" width="7.5" height="7.5"/>
  <rect class="cls-6" x="45.5" y="22.5" width="7.5" height="7.5"/>
  <rect class="cls-8" x="45.5" y="15" width="7.5" height="7.5"/>
  <rect class="cls-2" x="45.5" y="7.5" width="7.5" height="7.5"/>
  <rect class="cls-3" x="45.5" width="7.5" height="7.5"/>
  <rect class="cls-3" x="38" y="142.5" width="7.5" height="7.5"/>
  <rect class="cls-2" x="38" y="135" width="7.5" height="7.5"/>
  <rect class="cls-2" x="38" y="127.5" width="7.5" height="7.5"/>
  <rect class="cls-8" x="38" y="120" width="7.5" height="7.5"/>
  <rect class="cls-6" x="38" y="112.5" width="7.5" height="7.5"/>
  <rect class="cls-6" x="38" y="105" width="7.5" height="7.5"/>
  <rect class="cls-4" x="38" y="97.5" width="7.5" height="7.5"/>
  <rect class="cls-1" x="38" y="90" width="7.5" height="7.5"/>
  <rect class="cls-1" x="38" y="82.5" width="7.5" height="7.5"/>
  <rect class="cls-4" x="38" y="75" width="7.5" height="7.5"/>
  <rect class="cls-4" x="38" y="67.5" width="7.5" height="7.5"/>
  <rect class="cls-7" x="38" y="60" width="7.5" height="7.5"/>
  <rect class="cls-4" x="38" y="52.5" width="7.5" height="7.5"/>
  <rect class="cls-4" x="38" y="45" width="7.5" height="7.5"/>
  <rect class="cls-6" x="38" y="37.5" width="7.5" height="7.5"/>
  <rect class="cls-6" x="38" y="30" width="7.5" height="7.5"/>
  <rect class="cls-8" x="38" y="22.5" width="7.5" height="7.5"/>
  <rect class="cls-2" x="38" y="15" width="7.5" height="7.5"/>
  <rect class="cls-3" x="38" y="7.5" width="7.5" height="7.5"/>
  <rect class="cls-3" x="38" width="7.5" height="7.5"/>
  <rect class="cls-3" x="30.5" y="142.5" width="7.5" height="7.5"/>
  <rect class="cls-3" x="30.5" y="135" width="7.5" height="7.5"/>
  <rect class="cls-3" x="30.5" y="127.5" width="7.5" height="7.5"/>
  <rect class="cls-2" x="30.5" y="120" width="7.5" height="7.5"/>
  <rect class="cls-8" x="30.5" y="112.5" width="7.5" height="7.5"/>
  <rect class="cls-8" x="30.5" y="105" width="7.5" height="7.5"/>
  <rect class="cls-6" x="30.5" y="97.5" width="7.5" height="7.5"/>
  <rect class="cls-4" x="30.5" y="90" width="7.5" height="7.5"/>
  <rect class="cls-4" x="30.5" y="82.5" width="7.5" height="7.5"/>
  <rect class="cls-4" x="30.5" y="75" width="7.5" height="7.5"/>
  <rect class="cls-7" x="30.5" y="67.5" width="7.5" height="7.5"/>
  <rect class="cls-4" x="30.5" y="60" width="7.5" height="7.5"/>
  <rect class="cls-4" x="30.5" y="52.5" width="7.5" height="7.5"/>
  <rect class="cls-6" x="30.5" y="45" width="7.5" height="7.5"/>
  <rect class="cls-6" x="30.5" y="37.5" width="7.5" height="7.5"/>
  <rect class="cls-8" x="30.5" y="30" width="7.5" height="7.5"/>
  <rect class="cls-2" x="30.5" y="22.5" width="7.5" height="7.5"/>
  <rect class="cls-3" x="30.5" y="15" width="7.5" height="7.5"/>
  <rect class="cls-3" x="30.5" y="7.5" width="7.5" height="7.5"/>
  <rect class="cls-3" x="23" y="127.5" width="7.5" height="7.5"/>
  <rect class="cls-3" x="23" y="120" width="7.5" height="7.5"/>
  <rect class="cls-2" x="23" y="112.5" width="7.5" height="7.5"/>
  <rect class="cls-2" x="23" y="105" width="7.5" height="7.5"/>
  <rect class="cls-8" x="23" y="97.5" width="7.5" height="7.5"/>
  <rect class="cls-6" x="23" y="90" width="7.5" height="7.5"/>
  <rect class="cls-4" x="23" y="82.5" width="7.5" height="7.5"/>
  <rect class="cls-4" x="23" y="75" width="7.5" height="7.5"/>
  <rect class="cls-4" x="23" y="67.5" width="7.5" height="7.5"/>
  <rect class="cls-6" x="23" y="60" width="7.5" height="7.5"/>
  <rect class="cls-6" x="23" y="52.5" width="7.5" height="7.5"/>
  <rect class="cls-8" x="23" y="45" width="7.5" height="7.5"/>
  <rect class="cls-8" x="23" y="37.5" width="7.5" height="7.5"/>
  <rect class="cls-2" x="23" y="30" width="7.5" height="7.5"/>
  <rect class="cls-2" x="23" y="22.5" width="7.5" height="7.5"/>
  <rect class="cls-3" x="23" y="15" width="7.5" height="7.5"/>
  <rect class="cls-3" x="15.5" y="120" width="7.5" height="7.5"/>
  <rect class="cls-3" x="15.5" y="112.5" width="7.5" height="7.5"/>
  <rect class="cls-3" x="15.5" y="105" width="7.5" height="7.5"/>
  <rect class="cls-8" x="15.5" y="97.5" width="7.5" height="7.5"/>
  <rect class="cls-8" x="15.5" y="90" width="7.5" height="7.5"/>
  <rect class="cls-8" x="15.5" y="82.5" width="7.5" height="7.5"/>
  <rect class="cls-8" x="15.5" y="75" width="7.5" height="7.5"/>
  <rect class="cls-8" x="15.5" y="67.5" width="7.5" height="7.5"/>
  <rect class="cls-8" x="15.5" y="60" width="7.5" height="7.5"/>
  <rect class="cls-8" x="15.5" y="52.5" width="7.5" height="7.5"/>
  <rect class="cls-2" x="15.5" y="45" width="7.5" height="7.5"/>
  <rect class="cls-2" x="15.5" y="37.5" width="7.5" height="7.5"/>
  <rect class="cls-3" x="15.5" y="30" width="7.5" height="7.5"/>
  <rect class="cls-3" x="15.5" y="22.5" width="7.5" height="7.5"/>
  <rect class="cls-3" x="15.5" y="15" width="7.5" height="7.5"/>
  <rect class="cls-3" x="8" y="105" width="7.5" height="7.5"/>
  <rect class="cls-3" x="8" y="97.5" width="7.5" height="7.5"/>
  <rect class="cls-2" x="8" y="90" width="7.5" height="7.5"/>
  <rect class="cls-2" x="8" y="82.5" width="7.5" height="7.5"/>
  <rect class="cls-2" x="8" y="75" width="7.5" height="7.5"/>
  <rect class="cls-2" x="8" y="67.5" width="7.5" height="7.5"/>
  <rect class="cls-2" x="8" y="60" width="7.5" height="7.5"/>
  <rect class="cls-2" x="8" y="52.5" width="7.5" height="7.5"/>
  <rect class="cls-3" x="8" y="45" width="7.5" height="7.5"/>
  <rect class="cls-3" x="8" y="37.5" width="7.5" height="7.5"/>
  <rect class="cls-3" x="8" y="30" width="7.5" height="7.5"/>
  <rect class="cls-3" x=".5" y="97.5" width="7.5" height="7.5"/>
  <rect class="cls-3" x=".5" y="90" width="7.5" height="7.5"/>
  <rect class="cls-3" x=".5" y="82.5" width="7.5" height="7.5"/>
  <rect class="cls-3" x=".5" y="75" width="7.5" height="7.5"/>
  <rect class="cls-3" x=".5" y="67.5" width="7.5" height="7.5"/>
  <rect class="cls-3" x=".5" y="60" width="7.5" height="7.5"/>
  <rect class="cls-3" x=".5" y="52.5" width="7.5" height="7.5"/>
  <rect class="cls-3" x=".5" y="45" width="7.5" height="7.5"/>
</svg>