<?xml version="1.0" encoding="UTF-8"?>
<svg id="Layer_11" data-name="Layer 11" xmlns="http://www.w3.org/2000/svg" viewBox="0 0 90.53 50.86">
  <defs>
    <style>
      .cls-1 {
        fill: #66a0a3;
      }

      .cls-2 {
        fill: #9dcece;
      }

      .cls-3 {
        fill: #3a5a5f;
      }

      .cls-4 {
        fill: #9ac0db;
      }

      .cls-5 {
        fill: #defffe;
      }

      .cls-6 {
        fill: #1e3638;
      }
    </style>
  </defs>
  <rect x="82.44" y="36.2" width="7.55" height="7.33"/>
  <rect x="74.89" y="28.88" width="7.55" height="7.32"/>
  <rect class="cls-6" x="74.89" y="21.55" width="7.55" height="7.33"/>
  <rect x="67.34" y="43.53" width="7.55" height="7.33"/>
  <rect x="67.34" y="36.2" width="7.55" height="7.33"/>
  <rect class="cls-6" x="67.34" y="28.88" width="7.55" height="7.32"/>
  <rect class="cls-6" x="67.34" y="21.55" width="7.55" height="7.33"/>
  <rect class="cls-6" x="59.79" y="36.2" width="7.55" height="7.33"/>
  <rect class="cls-6" x="59.79" y="28.88" width="7.55" height="7.32"/>
  <rect class="cls-6" x="59.79" y="21.55" width="7.55" height="7.33"/>
  <rect class="cls-6" x="59.79" y="14.23" width="7.55" height="7.32"/>
  <rect class="cls-6" x="52.24" y="36.2" width="7.55" height="7.33"/>
  <rect class="cls-3" x="52.24" y="28.88" width="7.55" height="7.32"/>
  <rect class="cls-3" x="52.24" y="21.55" width="7.55" height="7.33"/>
  <rect class="cls-5" x="52.24" y="14.23" width="7.55" height="7.32"/>
  <rect class="cls-4" x="52.24" y="6.9" width="7.55" height="7.33"/>
  <rect class="cls-3" x="44.69" y="36.2" width="7.55" height="7.33"/>
  <rect class="cls-3" x="44.69" y="28.88" width="7.55" height="7.32"/>
  <rect class="cls-3" x="44.69" y="21.55" width="7.55" height="7.33"/>
  <rect class="cls-4" x="44.69" y="14.23" width="7.55" height="7.32"/>
  <rect class="cls-4" x="44.69" y="6.9" width="7.55" height="7.33"/>
  <rect class="cls-5" x="44.69" y="-.43" width="7.55" height="7.33"/>
  <rect class="cls-3" x="37.14" y="36.2" width="7.55" height="7.33"/>
  <rect class="cls-3" x="37.14" y="28.88" width="7.55" height="7.32"/>
  <rect class="cls-6" x="37.14" y="21.55" width="7.55" height="7.33"/>
  <rect class="cls-4" x="37.14" y="14.23" width="7.55" height="7.32"/>
  <rect class="cls-5" x="37.14" y="6.9" width="7.55" height="7.33"/>
  <rect class="cls-4" x="37.14" y="-.43" width="7.55" height="7.33"/>
  <rect class="cls-3" x="29.59" y="36.2" width="7.55" height="7.33"/>
  <rect class="cls-6" x="29.59" y="28.88" width="7.55" height="7.32"/>
  <rect class="cls-1" x="29.59" y="21.55" width="7.55" height="7.33"/>
  <rect class="cls-4" x="29.59" y="14.23" width="7.55" height="7.32"/>
  <rect class="cls-4" x="29.59" y="6.9" width="7.55" height="7.33"/>
  <rect class="cls-6" x="22.04" y="36.2" width="7.55" height="7.33"/>
  <rect class="cls-2" x="22.04" y="28.88" width="7.55" height="7.32"/>
  <rect class="cls-1" x="22.04" y="21.55" width="7.55" height="7.33"/>
  <rect class="cls-1" x="22.04" y="14.23" width="7.55" height="7.32"/>
  <rect x="14.49" y="43.53" width="7.55" height="7.33"/>
  <rect x="14.49" y="36.2" width="7.55" height="7.33"/>
  <rect class="cls-1" x="14.49" y="28.88" width="7.55" height="7.32"/>
  <rect class="cls-1" x="14.49" y="21.55" width="7.55" height="7.33"/>
  <rect x="6.94" y="28.88" width="7.55" height="7.32"/>
  <rect class="cls-1" x="6.94" y="21.55" width="7.55" height="7.33"/>
  <rect x="-.61" y="36.2" width="7.55" height="7.33"/>
</svg>