<?xml version="1.0" encoding="UTF-8"?>
<svg id="Layer_16" data-name="Layer 16" xmlns="http://www.w3.org/2000/svg" viewBox="0 0 188.02 205.42">
  <defs>
    <style>
      .cls-1 {
        fill: #ce9524;
      }

      .cls-2 {
        fill: #b2791d;
      }

      .cls-3 {
        fill: #66a0a3;
      }

      .cls-4 {
        fill: #9dcece;
      }

      .cls-5 {
        fill: #3a5a5f;
      }

      .cls-6 {
        fill: #f2f3cb;
      }

      .cls-7 {
        fill: #f9e593;
      }

      .cls-8 {
        fill: #1e3638;
      }

      .cls-9 {
        fill: #eaffd9;
      }

      .cls-10 {
        fill: #edd364;
      }
    </style>
  </defs>
  <rect class="cls-4" x="180.94" y="88.54" width="7.55" height="7.33"/>
  <rect class="cls-3" x="180.94" y="81.22" width="7.55" height="7.32"/>
  <rect class="cls-5" x="180.94" y="73.89" width="7.55" height="7.33"/>
  <rect class="cls-3" x="180.94" y="66.56" width="7.55" height="7.33"/>
  <rect class="cls-4" x="173.39" y="183.79" width="7.55" height="7.32"/>
  <rect class="cls-3" x="173.39" y="176.46" width="7.55" height="7.33"/>
  <rect class="cls-5" x="173.39" y="169.13" width="7.55" height="7.33"/>
  <rect class="cls-3" x="173.39" y="95.87" width="7.55" height="7.33"/>
  <rect class="cls-5" x="173.39" y="88.54" width="7.55" height="7.33"/>
  <rect class="cls-8" x="173.39" y="81.22" width="7.55" height="7.32"/>
  <rect class="cls-8" x="173.39" y="73.89" width="7.55" height="7.33"/>
  <rect class="cls-8" x="173.39" y="66.56" width="7.55" height="7.33"/>
  <rect class="cls-3" x="173.39" y="59.24" width="7.55" height="7.32"/>
  <rect class="cls-5" x="165.84" y="191.11" width="7.55" height="7.33"/>
  <rect class="cls-3" x="165.84" y="183.79" width="7.55" height="7.32"/>
  <rect class="cls-8" x="165.84" y="176.46" width="7.55" height="7.33"/>
  <rect class="cls-8" x="165.84" y="169.13" width="7.55" height="7.33"/>
  <rect class="cls-3" x="165.84" y="161.81" width="7.55" height="7.32"/>
  <rect class="cls-4" x="165.84" y="103.2" width="7.55" height="7.32"/>
  <rect class="cls-5" x="165.84" y="95.87" width="7.55" height="7.33"/>
  <rect class="cls-8" x="165.84" y="88.54" width="7.55" height="7.33"/>
  <rect class="cls-2" x="165.84" y="81.22" width="7.55" height="7.32"/>
  <rect class="cls-2" x="165.84" y="73.89" width="7.55" height="7.33"/>
  <rect class="cls-9" x="165.84" y="66.56" width="7.55" height="7.33"/>
  <rect class="cls-8" x="165.84" y="59.24" width="7.55" height="7.32"/>
  <rect class="cls-3" x="158.29" y="198.44" width="7.55" height="7.33"/>
  <rect class="cls-5" x="158.29" y="191.11" width="7.55" height="7.33"/>
  <rect class="cls-8" x="158.29" y="183.79" width="7.55" height="7.32"/>
  <rect class="cls-2" x="158.29" y="176.46" width="7.55" height="7.33"/>
  <rect class="cls-2" x="158.29" y="169.13" width="7.55" height="7.33"/>
  <rect class="cls-7" x="158.29" y="161.81" width="7.55" height="7.32"/>
  <rect class="cls-5" x="158.29" y="154.48" width="7.55" height="7.33"/>
  <rect class="cls-3" x="158.29" y="117.85" width="7.55" height="7.33"/>
  <rect class="cls-5" x="158.29" y="110.52" width="7.55" height="7.33"/>
  <rect class="cls-3" x="158.29" y="103.2" width="7.55" height="7.32"/>
  <rect class="cls-8" x="158.29" y="95.87" width="7.55" height="7.33"/>
  <rect class="cls-1" x="158.29" y="88.54" width="7.55" height="7.33"/>
  <rect class="cls-10" x="158.29" y="81.22" width="7.55" height="7.32"/>
  <rect class="cls-2" x="158.29" y="73.89" width="7.55" height="7.33"/>
  <rect class="cls-9" x="158.29" y="66.56" width="7.55" height="7.33"/>
  <rect class="cls-8" x="158.29" y="59.24" width="7.55" height="7.32"/>
  <rect class="cls-4" x="150.74" y="198.44" width="7.55" height="7.33"/>
  <rect class="cls-3" x="150.74" y="191.11" width="7.55" height="7.33"/>
  <rect class="cls-8" x="150.74" y="183.79" width="7.55" height="7.32"/>
  <rect class="cls-10" x="150.74" y="176.46" width="7.55" height="7.33"/>
  <rect class="cls-2" x="150.74" y="169.13" width="7.55" height="7.33"/>
  <rect class="cls-9" x="150.74" y="161.81" width="7.55" height="7.32"/>
  <rect class="cls-7" x="150.74" y="154.48" width="7.55" height="7.33"/>
  <rect class="cls-7" x="150.74" y="147.16" width="7.55" height="7.32"/>
  <rect class="cls-5" x="150.74" y="139.83" width="7.55" height="7.33"/>
  <rect class="cls-3" x="150.74" y="125.18" width="7.55" height="7.32"/>
  <rect class="cls-5" x="150.74" y="117.85" width="7.55" height="7.33"/>
  <rect class="cls-8" x="150.74" y="110.52" width="7.55" height="7.33"/>
  <rect class="cls-8" x="150.74" y="103.2" width="7.55" height="7.32"/>
  <rect class="cls-2" x="150.74" y="95.87" width="7.55" height="7.33"/>
  <rect class="cls-10" x="150.74" y="88.54" width="7.55" height="7.33"/>
  <rect class="cls-2" x="150.74" y="81.22" width="7.55" height="7.32"/>
  <rect class="cls-9" x="150.74" y="73.89" width="7.55" height="7.33"/>
  <rect class="cls-7" x="150.74" y="66.56" width="7.55" height="7.33"/>
  <rect class="cls-3" x="150.74" y="59.24" width="7.55" height="7.32"/>
  <rect class="cls-4" x="143.19" y="198.44" width="7.55" height="7.33"/>
  <rect class="cls-4" x="143.19" y="191.11" width="7.55" height="7.33"/>
  <rect class="cls-8" x="143.19" y="183.79" width="7.55" height="7.32"/>
  <rect class="cls-1" x="143.19" y="176.46" width="7.55" height="7.33"/>
  <rect class="cls-2" x="143.19" y="169.13" width="7.55" height="7.33"/>
  <rect class="cls-2" x="143.19" y="161.81" width="7.55" height="7.32"/>
  <rect class="cls-9" x="143.19" y="154.48" width="7.55" height="7.33"/>
  <rect class="cls-7" x="143.19" y="147.16" width="7.55" height="7.32"/>
  <rect class="cls-7" x="143.19" y="139.83" width="7.55" height="7.33"/>
  <rect class="cls-8" x="143.19" y="132.5" width="7.55" height="7.33"/>
  <rect class="cls-8" x="143.19" y="125.18" width="7.55" height="7.32"/>
  <rect class="cls-8" x="143.19" y="117.85" width="7.55" height="7.33"/>
  <rect class="cls-1" x="143.19" y="110.52" width="7.55" height="7.33"/>
  <rect class="cls-1" x="143.19" y="103.2" width="7.55" height="7.32"/>
  <rect class="cls-10" x="143.19" y="95.87" width="7.55" height="7.33"/>
  <rect class="cls-2" x="143.19" y="88.54" width="7.55" height="7.33"/>
  <rect class="cls-9" x="143.19" y="81.22" width="7.55" height="7.32"/>
  <rect class="cls-7" x="143.19" y="73.89" width="7.55" height="7.33"/>
  <rect class="cls-7" x="143.19" y="66.56" width="7.55" height="7.33"/>
  <rect class="cls-4" x="143.19" y="59.24" width="7.55" height="7.32"/>
  <rect class="cls-3" x="135.64" y="198.44" width="7.55" height="7.33"/>
  <rect class="cls-5" x="135.64" y="191.11" width="7.55" height="7.33"/>
  <rect class="cls-8" x="135.64" y="183.79" width="7.55" height="7.32"/>
  <rect class="cls-1" x="135.64" y="176.46" width="7.55" height="7.33"/>
  <rect class="cls-10" x="135.64" y="169.13" width="7.55" height="7.33"/>
  <rect class="cls-2" x="135.64" y="161.81" width="7.55" height="7.32"/>
  <rect class="cls-9" x="135.64" y="154.48" width="7.55" height="7.33"/>
  <rect class="cls-7" x="135.64" y="147.16" width="7.55" height="7.32"/>
  <rect class="cls-7" x="135.64" y="139.83" width="7.55" height="7.33"/>
  <rect class="cls-7" x="135.64" y="132.5" width="7.55" height="7.33"/>
  <rect class="cls-6" x="135.64" y="125.18" width="7.55" height="7.32"/>
  <rect class="cls-1" x="135.64" y="117.85" width="7.55" height="7.33"/>
  <rect class="cls-2" x="135.64" y="110.52" width="7.55" height="7.33"/>
  <rect class="cls-10" x="135.64" y="103.2" width="7.55" height="7.32"/>
  <rect class="cls-2" x="135.64" y="95.87" width="7.55" height="7.33"/>
  <rect class="cls-2" x="135.64" y="88.54" width="7.55" height="7.33"/>
  <rect class="cls-9" x="135.64" y="81.22" width="7.55" height="7.32"/>
  <rect class="cls-7" x="135.64" y="73.89" width="7.55" height="7.33"/>
  <rect class="cls-10" x="135.64" y="66.56" width="7.55" height="7.33"/>
  <rect class="cls-5" x="135.64" y="59.24" width="7.55" height="7.32"/>
  <rect class="cls-3" x="128.09" y="191.11" width="7.55" height="7.33"/>
  <rect class="cls-3" x="128.09" y="183.79" width="7.55" height="7.32"/>
  <rect class="cls-8" x="128.09" y="176.46" width="7.55" height="7.33"/>
  <rect class="cls-1" x="128.09" y="169.13" width="7.55" height="7.33"/>
  <rect class="cls-1" x="128.09" y="161.81" width="7.55" height="7.32"/>
  <rect class="cls-2" x="128.09" y="154.48" width="7.55" height="7.33"/>
  <rect class="cls-9" x="128.09" y="147.16" width="7.55" height="7.32"/>
  <rect class="cls-7" x="128.09" y="139.83" width="7.55" height="7.33"/>
  <rect class="cls-7" x="128.09" y="132.5" width="7.55" height="7.33"/>
  <rect class="cls-6" x="128.09" y="125.18" width="7.55" height="7.32"/>
  <rect class="cls-6" x="128.09" y="117.85" width="7.55" height="7.33"/>
  <rect class="cls-6" x="128.09" y="110.52" width="7.55" height="7.33"/>
  <rect class="cls-2" x="128.09" y="103.2" width="7.55" height="7.32"/>
  <rect class="cls-9" x="128.09" y="95.87" width="7.55" height="7.33"/>
  <rect class="cls-7" x="128.09" y="88.54" width="7.55" height="7.33"/>
  <rect class="cls-7" x="128.09" y="81.22" width="7.55" height="7.32"/>
  <rect class="cls-10" x="128.09" y="73.89" width="7.55" height="7.33"/>
  <rect class="cls-9" x="128.09" y="66.56" width="7.55" height="7.33"/>
  <rect class="cls-5" x="128.09" y="59.24" width="7.55" height="7.32"/>
  <rect class="cls-3" x="128.09" y="51.91" width="7.55" height="7.33"/>
  <rect class="cls-4" x="120.54" y="183.79" width="7.55" height="7.32"/>
  <rect class="cls-8" x="120.54" y="176.46" width="7.55" height="7.33"/>
  <rect class="cls-1" x="120.54" y="169.13" width="7.55" height="7.33"/>
  <rect class="cls-10" x="120.54" y="161.81" width="7.55" height="7.32"/>
  <rect class="cls-2" x="120.54" y="154.48" width="7.55" height="7.33"/>
  <rect class="cls-2" x="120.54" y="147.16" width="7.55" height="7.32"/>
  <rect class="cls-9" x="120.54" y="139.83" width="7.55" height="7.33"/>
  <rect class="cls-6" x="120.54" y="132.5" width="7.55" height="7.33"/>
  <rect class="cls-6" x="120.54" y="125.18" width="7.55" height="7.32"/>
  <rect class="cls-6" x="120.54" y="117.85" width="7.55" height="7.33"/>
  <rect class="cls-7" x="120.54" y="110.52" width="7.55" height="7.33"/>
  <rect class="cls-7" x="120.54" y="103.2" width="7.55" height="7.32"/>
  <rect class="cls-7" x="120.54" y="95.87" width="7.55" height="7.33"/>
  <rect class="cls-7" x="120.54" y="88.54" width="7.55" height="7.33"/>
  <rect class="cls-10" x="120.54" y="81.22" width="7.55" height="7.32"/>
  <rect class="cls-9" x="120.54" y="73.89" width="7.55" height="7.33"/>
  <rect class="cls-9" x="120.54" y="66.56" width="7.55" height="7.33"/>
  <rect class="cls-8" x="120.54" y="59.24" width="7.55" height="7.32"/>
  <rect class="cls-8" x="120.54" y="51.91" width="7.55" height="7.33"/>
  <rect class="cls-4" x="120.54" y="44.58" width="7.55" height="7.33"/>
  <rect class="cls-3" x="120.54" y="37.26" width="7.55" height="7.32"/>
  <rect class="cls-3" x="112.99" y="183.79" width="7.55" height="7.32"/>
  <rect class="cls-5" x="112.99" y="176.46" width="7.55" height="7.33"/>
  <rect class="cls-8" x="112.99" y="169.13" width="7.55" height="7.33"/>
  <rect class="cls-2" x="112.99" y="161.81" width="7.55" height="7.32"/>
  <rect class="cls-10" x="112.99" y="154.48" width="7.55" height="7.33"/>
  <rect class="cls-2" x="112.99" y="147.16" width="7.55" height="7.32"/>
  <rect class="cls-9" x="112.99" y="139.83" width="7.55" height="7.33"/>
  <rect class="cls-6" x="112.99" y="132.5" width="7.55" height="7.33"/>
  <rect class="cls-6" x="112.99" y="125.18" width="7.55" height="7.32"/>
  <rect class="cls-7" x="112.99" y="117.85" width="7.55" height="7.33"/>
  <rect class="cls-7" x="112.99" y="110.52" width="7.55" height="7.33"/>
  <rect class="cls-7" x="112.99" y="103.2" width="7.55" height="7.32"/>
  <rect class="cls-7" x="112.99" y="95.87" width="7.55" height="7.33"/>
  <rect class="cls-7" x="112.99" y="88.54" width="7.55" height="7.33"/>
  <rect class="cls-9" x="112.99" y="81.22" width="7.55" height="7.32"/>
  <rect class="cls-9" x="112.99" y="73.89" width="7.55" height="7.33"/>
  <rect class="cls-9" x="112.99" y="66.56" width="7.55" height="7.33"/>
  <rect class="cls-9" x="112.99" y="59.24" width="7.55" height="7.32"/>
  <rect class="cls-9" x="112.99" y="51.91" width="7.55" height="7.33"/>
  <rect class="cls-8" x="112.99" y="44.58" width="7.55" height="7.33"/>
  <rect class="cls-8" x="112.99" y="37.26" width="7.55" height="7.32"/>
  <rect class="cls-5" x="112.99" y="29.93" width="7.55" height="7.33"/>
  <rect class="cls-3" x="112.99" y="22.6" width="7.55" height="7.33"/>
  <rect class="cls-4" x="112.99" y="15.28" width="7.55" height="7.32"/>
  <rect class="cls-3" x="105.44" y="176.46" width="7.55" height="7.33"/>
  <rect class="cls-5" x="105.44" y="169.13" width="7.55" height="7.33"/>
  <rect class="cls-8" x="105.44" y="161.81" width="7.55" height="7.32"/>
  <rect class="cls-2" x="105.44" y="154.48" width="7.55" height="7.33"/>
  <rect class="cls-10" x="105.44" y="147.16" width="7.55" height="7.32"/>
  <rect class="cls-2" x="105.44" y="139.83" width="7.55" height="7.33"/>
  <rect class="cls-9" x="105.44" y="132.5" width="7.55" height="7.33"/>
  <rect class="cls-7" x="105.44" y="125.18" width="7.55" height="7.32"/>
  <rect class="cls-7" x="105.44" y="117.85" width="7.55" height="7.33"/>
  <rect class="cls-7" x="105.44" y="110.52" width="7.55" height="7.33"/>
  <rect class="cls-7" x="105.44" y="103.2" width="7.55" height="7.32"/>
  <rect class="cls-7" x="105.44" y="95.87" width="7.55" height="7.33"/>
  <rect class="cls-9" x="105.44" y="88.54" width="7.55" height="7.33"/>
  <rect class="cls-9" x="105.44" y="81.22" width="7.55" height="7.32"/>
  <rect class="cls-9" x="105.44" y="73.89" width="7.55" height="7.33"/>
  <rect class="cls-9" x="105.44" y="66.56" width="7.55" height="7.33"/>
  <rect class="cls-9" x="105.44" y="59.24" width="7.55" height="7.32"/>
  <rect class="cls-10" x="105.44" y="51.91" width="7.55" height="7.33"/>
  <rect class="cls-9" x="105.44" y="44.58" width="7.55" height="7.33"/>
  <rect class="cls-9" x="105.44" y="37.26" width="7.55" height="7.32"/>
  <rect class="cls-9" x="105.44" y="29.93" width="7.55" height="7.33"/>
  <rect class="cls-8" x="105.44" y="22.6" width="7.55" height="7.33"/>
  <rect class="cls-3" x="105.44" y="15.28" width="7.55" height="7.32"/>
  <rect class="cls-3" x="105.44" y="7.95" width="7.55" height="7.33"/>
  <rect class="cls-5" x="97.89" y="169.13" width="7.55" height="7.33"/>
  <rect class="cls-8" x="97.89" y="161.81" width="7.55" height="7.32"/>
  <rect class="cls-1" x="97.89" y="154.48" width="7.55" height="7.33"/>
  <rect class="cls-10" x="97.89" y="147.16" width="7.55" height="7.32"/>
  <rect class="cls-2" x="97.89" y="139.83" width="7.55" height="7.33"/>
  <rect class="cls-9" x="97.89" y="132.5" width="7.55" height="7.33"/>
  <rect class="cls-7" x="97.89" y="125.18" width="7.55" height="7.32"/>
  <rect class="cls-7" x="97.89" y="117.85" width="7.55" height="7.33"/>
  <rect class="cls-7" x="97.89" y="110.52" width="7.55" height="7.33"/>
  <rect class="cls-10" x="97.89" y="103.2" width="7.55" height="7.32"/>
  <rect class="cls-9" x="97.89" y="95.87" width="7.55" height="7.33"/>
  <rect class="cls-9" x="97.89" y="88.54" width="7.55" height="7.33"/>
  <rect class="cls-9" x="97.89" y="81.22" width="7.55" height="7.32"/>
  <rect class="cls-9" x="97.89" y="73.89" width="7.55" height="7.33"/>
  <rect class="cls-9" x="97.89" y="66.56" width="7.55" height="7.33"/>
  <rect class="cls-10" x="97.89" y="59.24" width="7.55" height="7.32"/>
  <rect class="cls-7" x="97.89" y="51.91" width="7.55" height="7.33"/>
  <rect class="cls-7" x="97.89" y="44.58" width="7.55" height="7.33"/>
  <rect class="cls-6" x="97.89" y="37.26" width="7.55" height="7.32"/>
  <rect class="cls-6" x="97.89" y="29.93" width="7.55" height="7.33"/>
  <rect class="cls-7" x="97.89" y="22.6" width="7.55" height="7.33"/>
  <rect class="cls-9" x="97.89" y="15.28" width="7.55" height="7.32"/>
  <rect class="cls-8" x="97.89" y="7.95" width="7.55" height="7.33"/>
  <rect class="cls-5" x="97.89" y=".62" width="7.55" height="7.33"/>
  <rect class="cls-4" x="90.34" y="169.13" width="7.55" height="7.33"/>
  <rect class="cls-8" x="90.34" y="161.81" width="7.55" height="7.32"/>
  <rect class="cls-8" x="90.34" y="154.48" width="7.55" height="7.33"/>
  <rect class="cls-2" x="90.34" y="147.16" width="7.55" height="7.32"/>
  <rect class="cls-10" x="90.34" y="139.83" width="7.55" height="7.33"/>
  <rect class="cls-2" x="90.34" y="132.5" width="7.55" height="7.33"/>
  <rect class="cls-7" x="90.34" y="125.18" width="7.55" height="7.32"/>
  <rect class="cls-7" x="90.34" y="117.85" width="7.55" height="7.33"/>
  <rect class="cls-7" x="90.34" y="110.52" width="7.55" height="7.33"/>
  <rect class="cls-9" x="90.34" y="103.2" width="7.55" height="7.32"/>
  <rect class="cls-9" x="90.34" y="95.87" width="7.55" height="7.33"/>
  <rect class="cls-9" x="90.34" y="88.54" width="7.55" height="7.33"/>
  <rect class="cls-9" x="90.34" y="81.22" width="7.55" height="7.32"/>
  <rect class="cls-9" x="90.34" y="73.89" width="7.55" height="7.33"/>
  <rect class="cls-7" x="90.34" y="66.56" width="7.55" height="7.33"/>
  <rect class="cls-7" x="90.34" y="59.24" width="7.55" height="7.32"/>
  <rect class="cls-7" x="90.34" y="51.91" width="7.55" height="7.33"/>
  <rect class="cls-6" x="90.34" y="44.58" width="7.55" height="7.33"/>
  <rect class="cls-6" x="90.34" y="37.26" width="7.55" height="7.32"/>
  <rect class="cls-7" x="90.34" y="29.93" width="7.55" height="7.33"/>
  <rect class="cls-7" x="90.34" y="22.6" width="7.55" height="7.33"/>
  <rect class="cls-7" x="90.34" y="15.28" width="7.55" height="7.32"/>
  <rect class="cls-7" x="90.34" y="7.95" width="7.55" height="7.33"/>
  <rect class="cls-7" x="90.34" y=".62" width="7.55" height="7.33"/>
  <rect class="cls-5" x="82.79" y="176.46" width="7.55" height="7.33"/>
  <rect class="cls-3" x="82.79" y="169.13" width="7.55" height="7.33"/>
  <rect class="cls-8" x="82.79" y="161.81" width="7.55" height="7.32"/>
  <rect class="cls-1" x="82.79" y="154.48" width="7.55" height="7.33"/>
  <rect class="cls-10" x="82.79" y="147.16" width="7.55" height="7.32"/>
  <rect class="cls-2" x="82.79" y="139.83" width="7.55" height="7.33"/>
  <rect class="cls-9" x="82.79" y="132.5" width="7.55" height="7.33"/>
  <rect class="cls-7" x="82.79" y="125.18" width="7.55" height="7.32"/>
  <rect class="cls-10" x="82.79" y="117.85" width="7.55" height="7.33"/>
  <rect class="cls-9" x="82.79" y="110.52" width="7.55" height="7.33"/>
  <rect class="cls-9" x="82.79" y="103.2" width="7.55" height="7.32"/>
  <rect class="cls-9" x="82.79" y="95.87" width="7.55" height="7.33"/>
  <rect class="cls-9" x="82.79" y="88.54" width="7.55" height="7.33"/>
  <rect class="cls-9" x="82.79" y="81.22" width="7.55" height="7.32"/>
  <rect class="cls-10" x="82.79" y="73.89" width="7.55" height="7.33"/>
  <rect class="cls-7" x="82.79" y="66.56" width="7.55" height="7.33"/>
  <rect class="cls-7" x="82.79" y="59.24" width="7.55" height="7.32"/>
  <rect class="cls-7" x="82.79" y="51.91" width="7.55" height="7.33"/>
  <rect class="cls-6" x="82.79" y="44.58" width="7.55" height="7.33"/>
  <rect class="cls-7" x="82.79" y="37.26" width="7.55" height="7.32"/>
  <rect class="cls-7" x="82.79" y="29.93" width="7.55" height="7.33"/>
  <rect class="cls-7" x="82.79" y="22.6" width="7.55" height="7.33"/>
  <rect class="cls-9" x="82.79" y="15.28" width="7.55" height="7.32"/>
  <rect class="cls-8" x="82.79" y="7.95" width="7.55" height="7.33"/>
  <rect class="cls-5" x="82.79" y=".62" width="7.55" height="7.33"/>
  <rect class="cls-4" x="75.24" y="183.79" width="7.55" height="7.32"/>
  <rect class="cls-5" x="75.24" y="176.46" width="7.55" height="7.33"/>
  <rect class="cls-8" x="75.24" y="169.13" width="7.55" height="7.33"/>
  <rect class="cls-2" x="75.24" y="161.81" width="7.55" height="7.32"/>
  <rect class="cls-1" x="75.24" y="154.48" width="7.55" height="7.33"/>
  <rect class="cls-10" x="75.24" y="147.16" width="7.55" height="7.32"/>
  <rect class="cls-2" x="75.24" y="139.83" width="7.55" height="7.33"/>
  <rect class="cls-9" x="75.24" y="132.5" width="7.55" height="7.33"/>
  <rect class="cls-10" x="75.24" y="125.18" width="7.55" height="7.32"/>
  <rect class="cls-9" x="75.24" y="117.85" width="7.55" height="7.33"/>
  <rect class="cls-9" x="75.24" y="110.52" width="7.55" height="7.33"/>
  <rect class="cls-9" x="75.24" y="103.2" width="7.55" height="7.32"/>
  <rect class="cls-9" x="75.24" y="95.87" width="7.55" height="7.33"/>
  <rect class="cls-9" x="75.24" y="88.54" width="7.55" height="7.33"/>
  <rect class="cls-10" x="75.24" y="81.22" width="7.55" height="7.32"/>
  <rect class="cls-7" x="75.24" y="73.89" width="7.55" height="7.33"/>
  <rect class="cls-7" x="75.24" y="66.56" width="7.55" height="7.33"/>
  <rect class="cls-7" x="75.24" y="59.24" width="7.55" height="7.32"/>
  <rect class="cls-6" x="75.24" y="51.91" width="7.55" height="7.33"/>
  <rect class="cls-9" x="75.24" y="44.58" width="7.55" height="7.33"/>
  <rect class="cls-9" x="75.24" y="37.26" width="7.55" height="7.32"/>
  <rect class="cls-9" x="75.24" y="29.93" width="7.55" height="7.33"/>
  <rect class="cls-8" x="75.24" y="22.6" width="7.55" height="7.33"/>
  <rect class="cls-3" x="75.24" y="15.28" width="7.55" height="7.32"/>
  <rect class="cls-3" x="75.24" y="7.95" width="7.55" height="7.33"/>
  <rect class="cls-3" x="67.69" y="183.79" width="7.55" height="7.32"/>
  <rect class="cls-5" x="67.69" y="176.46" width="7.55" height="7.33"/>
  <rect class="cls-8" x="67.69" y="169.13" width="7.55" height="7.33"/>
  <rect class="cls-1" x="67.69" y="161.81" width="7.55" height="7.32"/>
  <rect class="cls-10" x="67.69" y="154.48" width="7.55" height="7.33"/>
  <rect class="cls-2" x="67.69" y="147.16" width="7.55" height="7.32"/>
  <rect class="cls-9" x="67.69" y="139.83" width="7.55" height="7.33"/>
  <rect class="cls-10" x="67.69" y="132.5" width="7.55" height="7.33"/>
  <rect class="cls-9" x="67.69" y="125.18" width="7.55" height="7.32"/>
  <rect class="cls-9" x="67.69" y="117.85" width="7.55" height="7.33"/>
  <rect class="cls-9" x="67.69" y="110.52" width="7.55" height="7.33"/>
  <rect class="cls-9" x="67.69" y="103.2" width="7.55" height="7.32"/>
  <rect class="cls-9" x="67.69" y="95.87" width="7.55" height="7.33"/>
  <rect class="cls-10" x="67.69" y="88.54" width="7.55" height="7.33"/>
  <rect class="cls-7" x="67.69" y="81.22" width="7.55" height="7.32"/>
  <rect class="cls-7" x="67.69" y="73.89" width="7.55" height="7.33"/>
  <rect class="cls-7" x="67.69" y="66.56" width="7.55" height="7.33"/>
  <rect class="cls-6" x="67.69" y="59.24" width="7.55" height="7.32"/>
  <rect class="cls-6" x="67.69" y="51.91" width="7.55" height="7.33"/>
  <rect class="cls-8" x="67.69" y="44.58" width="7.55" height="7.33"/>
  <rect class="cls-8" x="67.69" y="37.26" width="7.55" height="7.32"/>
  <rect class="cls-5" x="67.69" y="29.93" width="7.55" height="7.33"/>
  <rect class="cls-3" x="67.69" y="22.6" width="7.55" height="7.33"/>
  <rect class="cls-4" x="67.69" y="15.28" width="7.55" height="7.32"/>
  <rect class="cls-5" x="60.14" y="191.11" width="7.55" height="7.33"/>
  <rect class="cls-5" x="60.14" y="183.79" width="7.55" height="7.32"/>
  <rect class="cls-8" x="60.14" y="176.46" width="7.55" height="7.33"/>
  <rect class="cls-2" x="60.14" y="169.13" width="7.55" height="7.33"/>
  <rect class="cls-10" x="60.14" y="161.81" width="7.55" height="7.32"/>
  <rect class="cls-2" x="60.14" y="154.48" width="7.55" height="7.33"/>
  <rect class="cls-2" x="60.14" y="147.16" width="7.55" height="7.32"/>
  <rect class="cls-9" x="60.14" y="139.83" width="7.55" height="7.33"/>
  <rect class="cls-9" x="60.14" y="132.5" width="7.55" height="7.33"/>
  <rect class="cls-9" x="60.14" y="125.18" width="7.55" height="7.32"/>
  <rect class="cls-9" x="60.14" y="117.85" width="7.55" height="7.33"/>
  <rect class="cls-9" x="60.14" y="110.52" width="7.55" height="7.33"/>
  <rect class="cls-9" x="60.14" y="103.2" width="7.55" height="7.32"/>
  <rect class="cls-10" x="60.14" y="95.87" width="7.55" height="7.33"/>
  <rect class="cls-7" x="60.14" y="88.54" width="7.55" height="7.33"/>
  <rect class="cls-7" x="60.14" y="81.22" width="7.55" height="7.32"/>
  <rect class="cls-7" x="60.14" y="73.89" width="7.55" height="7.33"/>
  <rect class="cls-6" x="60.14" y="66.56" width="7.55" height="7.33"/>
  <rect class="cls-8" x="60.14" y="59.24" width="7.55" height="7.32"/>
  <rect class="cls-8" x="60.14" y="51.91" width="7.55" height="7.33"/>
  <rect class="cls-4" x="60.14" y="44.58" width="7.55" height="7.33"/>
  <rect class="cls-3" x="60.14" y="37.26" width="7.55" height="7.32"/>
  <rect class="cls-3" x="52.59" y="198.44" width="7.55" height="7.33"/>
  <rect class="cls-5" x="52.59" y="191.11" width="7.55" height="7.33"/>
  <rect class="cls-8" x="52.59" y="183.79" width="7.55" height="7.32"/>
  <rect class="cls-8" x="52.59" y="176.46" width="7.55" height="7.33"/>
  <rect class="cls-2" x="52.59" y="169.13" width="7.55" height="7.33"/>
  <rect class="cls-1" x="52.59" y="161.81" width="7.55" height="7.32"/>
  <rect class="cls-2" x="52.59" y="154.48" width="7.55" height="7.33"/>
  <rect class="cls-9" x="52.59" y="147.16" width="7.55" height="7.32"/>
  <rect class="cls-9" x="52.59" y="139.83" width="7.55" height="7.33"/>
  <rect class="cls-9" x="52.59" y="132.5" width="7.55" height="7.33"/>
  <rect class="cls-9" x="52.59" y="125.18" width="7.55" height="7.32"/>
  <rect class="cls-9" x="52.59" y="117.85" width="7.55" height="7.33"/>
  <rect class="cls-9" x="52.59" y="110.52" width="7.55" height="7.33"/>
  <rect class="cls-2" x="52.59" y="103.2" width="7.55" height="7.32"/>
  <rect class="cls-9" x="52.59" y="95.87" width="7.55" height="7.33"/>
  <rect class="cls-7" x="52.59" y="88.54" width="7.55" height="7.33"/>
  <rect class="cls-7" x="52.59" y="81.22" width="7.55" height="7.32"/>
  <rect class="cls-6" x="52.59" y="73.89" width="7.55" height="7.33"/>
  <rect class="cls-6" x="52.59" y="66.56" width="7.55" height="7.33"/>
  <rect class="cls-5" x="52.59" y="59.24" width="7.55" height="7.32"/>
  <rect class="cls-3" x="52.59" y="51.91" width="7.55" height="7.33"/>
  <rect class="cls-4" x="45.04" y="198.44" width="7.55" height="7.33"/>
  <rect class="cls-5" x="45.04" y="191.11" width="7.55" height="7.33"/>
  <rect class="cls-8" x="45.04" y="183.79" width="7.55" height="7.32"/>
  <rect class="cls-2" x="45.04" y="176.46" width="7.55" height="7.33"/>
  <rect class="cls-10" x="45.04" y="169.13" width="7.55" height="7.33"/>
  <rect class="cls-2" x="45.04" y="161.81" width="7.55" height="7.32"/>
  <rect class="cls-9" x="45.04" y="154.48" width="7.55" height="7.33"/>
  <rect class="cls-9" x="45.04" y="147.16" width="7.55" height="7.32"/>
  <rect class="cls-9" x="45.04" y="139.83" width="7.55" height="7.33"/>
  <rect class="cls-9" x="45.04" y="132.5" width="7.55" height="7.33"/>
  <rect class="cls-9" x="45.04" y="125.18" width="7.55" height="7.32"/>
  <rect class="cls-1" x="45.04" y="117.85" width="7.55" height="7.33"/>
  <rect class="cls-2" x="45.04" y="110.52" width="7.55" height="7.33"/>
  <rect class="cls-10" x="45.04" y="103.2" width="7.55" height="7.32"/>
  <rect class="cls-2" x="45.04" y="95.87" width="7.55" height="7.33"/>
  <rect class="cls-2" x="45.04" y="88.54" width="7.55" height="7.33"/>
  <rect class="cls-9" x="45.04" y="81.22" width="7.55" height="7.32"/>
  <rect class="cls-6" x="45.04" y="73.89" width="7.55" height="7.33"/>
  <rect class="cls-7" x="45.04" y="66.56" width="7.55" height="7.33"/>
  <rect class="cls-5" x="45.04" y="59.24" width="7.55" height="7.32"/>
  <rect class="cls-4" x="37.49" y="198.44" width="7.55" height="7.33"/>
  <rect class="cls-4" x="37.49" y="191.11" width="7.55" height="7.33"/>
  <rect class="cls-8" x="37.49" y="183.79" width="7.55" height="7.32"/>
  <rect class="cls-10" x="37.49" y="176.46" width="7.55" height="7.33"/>
  <rect class="cls-1" x="37.49" y="169.13" width="7.55" height="7.33"/>
  <rect class="cls-1" x="37.49" y="161.81" width="7.55" height="7.32"/>
  <rect class="cls-9" x="37.49" y="154.48" width="7.55" height="7.33"/>
  <rect class="cls-9" x="37.49" y="147.16" width="7.55" height="7.32"/>
  <rect class="cls-9" x="37.49" y="139.83" width="7.55" height="7.33"/>
  <rect class="cls-8" x="37.49" y="132.5" width="7.55" height="7.33"/>
  <rect class="cls-8" x="37.49" y="125.18" width="7.55" height="7.32"/>
  <rect class="cls-8" x="37.49" y="117.85" width="7.55" height="7.33"/>
  <rect class="cls-1" x="37.49" y="110.52" width="7.55" height="7.33"/>
  <rect class="cls-1" x="37.49" y="103.2" width="7.55" height="7.32"/>
  <rect class="cls-10" x="37.49" y="95.87" width="7.55" height="7.33"/>
  <rect class="cls-2" x="37.49" y="88.54" width="7.55" height="7.33"/>
  <rect class="cls-9" x="37.49" y="81.22" width="7.55" height="7.32"/>
  <rect class="cls-7" x="37.49" y="73.89" width="7.55" height="7.33"/>
  <rect class="cls-7" x="37.49" y="66.56" width="7.55" height="7.33"/>
  <rect class="cls-3" x="37.49" y="59.24" width="7.55" height="7.32"/>
  <rect class="cls-4" x="29.94" y="198.44" width="7.55" height="7.33"/>
  <rect class="cls-3" x="29.94" y="191.11" width="7.55" height="7.33"/>
  <rect class="cls-8" x="29.94" y="183.79" width="7.55" height="7.32"/>
  <rect class="cls-1" x="29.94" y="176.46" width="7.55" height="7.33"/>
  <rect class="cls-2" x="29.94" y="169.13" width="7.55" height="7.33"/>
  <rect class="cls-9" x="29.94" y="161.81" width="7.55" height="7.32"/>
  <rect class="cls-9" x="29.94" y="154.48" width="7.55" height="7.33"/>
  <rect class="cls-9" x="29.94" y="147.16" width="7.55" height="7.32"/>
  <rect class="cls-5" x="29.94" y="139.83" width="7.55" height="7.33"/>
  <rect class="cls-3" x="29.94" y="125.18" width="7.55" height="7.32"/>
  <rect class="cls-5" x="29.94" y="117.85" width="7.55" height="7.33"/>
  <rect class="cls-8" x="29.94" y="110.52" width="7.55" height="7.33"/>
  <rect class="cls-8" x="29.94" y="103.2" width="7.55" height="7.32"/>
  <rect class="cls-2" x="29.94" y="95.87" width="7.55" height="7.33"/>
  <rect class="cls-10" x="29.94" y="88.54" width="7.55" height="7.33"/>
  <rect class="cls-2" x="29.94" y="81.22" width="7.55" height="7.32"/>
  <rect class="cls-9" x="29.94" y="73.89" width="7.55" height="7.33"/>
  <rect class="cls-7" x="29.94" y="66.56" width="7.55" height="7.33"/>
  <rect class="cls-3" x="29.94" y="59.24" width="7.55" height="7.32"/>
  <rect class="cls-3" x="22.39" y="198.44" width="7.55" height="7.33"/>
  <rect class="cls-5" x="22.39" y="191.11" width="7.55" height="7.33"/>
  <rect class="cls-8" x="22.39" y="183.79" width="7.55" height="7.32"/>
  <rect class="cls-2" x="22.39" y="176.46" width="7.55" height="7.33"/>
  <rect class="cls-2" x="22.39" y="169.13" width="7.55" height="7.33"/>
  <rect class="cls-7" x="22.39" y="161.81" width="7.55" height="7.32"/>
  <rect class="cls-3" x="22.39" y="154.48" width="7.55" height="7.33"/>
  <rect class="cls-4" x="22.39" y="117.85" width="7.55" height="7.33"/>
  <rect class="cls-5" x="22.39" y="110.52" width="7.55" height="7.33"/>
  <rect class="cls-3" x="22.39" y="103.2" width="7.55" height="7.32"/>
  <rect class="cls-8" x="22.39" y="95.87" width="7.55" height="7.33"/>
  <rect class="cls-1" x="22.39" y="88.54" width="7.55" height="7.33"/>
  <rect class="cls-10" x="22.39" y="81.22" width="7.55" height="7.32"/>
  <rect class="cls-2" x="22.39" y="73.89" width="7.55" height="7.33"/>
  <rect class="cls-9" x="22.39" y="66.56" width="7.55" height="7.33"/>
  <rect class="cls-8" x="22.39" y="59.24" width="7.55" height="7.32"/>
  <rect class="cls-5" x="14.84" y="191.11" width="7.55" height="7.33"/>
  <rect class="cls-3" x="14.84" y="183.79" width="7.55" height="7.32"/>
  <rect class="cls-8" x="14.84" y="176.46" width="7.55" height="7.33"/>
  <rect class="cls-8" x="14.84" y="169.13" width="7.55" height="7.33"/>
  <rect class="cls-5" x="14.84" y="161.81" width="7.55" height="7.32"/>
  <rect class="cls-4" x="14.84" y="103.2" width="7.55" height="7.32"/>
  <rect class="cls-5" x="14.84" y="95.87" width="7.55" height="7.33"/>
  <rect class="cls-8" x="14.84" y="88.54" width="7.55" height="7.33"/>
  <rect class="cls-2" x="14.84" y="81.22" width="7.55" height="7.32"/>
  <rect class="cls-2" x="14.84" y="73.89" width="7.55" height="7.33"/>
  <rect class="cls-9" x="14.84" y="66.56" width="7.55" height="7.33"/>
  <rect class="cls-8" x="14.84" y="59.24" width="7.55" height="7.32"/>
  <rect class="cls-4" x="7.29" y="183.79" width="7.55" height="7.32"/>
  <rect class="cls-3" x="7.29" y="176.46" width="7.55" height="7.33"/>
  <rect class="cls-5" x="7.29" y="169.13" width="7.55" height="7.33"/>
  <rect class="cls-3" x="7.29" y="95.87" width="7.55" height="7.33"/>
  <rect class="cls-5" x="7.29" y="88.54" width="7.55" height="7.33"/>
  <rect class="cls-8" x="7.29" y="81.22" width="7.55" height="7.32"/>
  <rect class="cls-8" x="7.29" y="73.89" width="7.55" height="7.33"/>
  <rect class="cls-5" x="7.29" y="66.56" width="7.55" height="7.33"/>
  <rect class="cls-3" x="7.29" y="59.24" width="7.55" height="7.32"/>
  <rect class="cls-4" x="-.26" y="88.54" width="7.55" height="7.33"/>
  <rect class="cls-3" x="-.26" y="81.22" width="7.55" height="7.32"/>
  <rect class="cls-5" x="-.26" y="73.89" width="7.55" height="7.33"/>
  <rect class="cls-3" x="-.26" y="66.56" width="7.55" height="7.33"/>
</svg>