<?xml version="1.0" encoding="UTF-8"?>
<svg id="Layer_3" data-name="Layer 3" xmlns="http://www.w3.org/2000/svg" viewBox="0 0 100 100">
  <defs>
    <style>
      .cls-1 {
        fill: #d7fdff;
      }

      .cls-2 {
        fill: #6abcff;
      }

      .cls-3 {
        fill: #8fe2ff;
      }

      .cls-4 {
        fill: #dff7fa;
      }
    </style>
  </defs>
  <rect class="cls-3" x="93.33" y="93.34" width="6.67" height="6.66"/>
  <rect class="cls-2" x="93.33" y="33.34" width="6.67" height="6.66"/>
  <rect class="cls-3" x="86.67" y="93.34" width="6.66" height="6.66"/>
  <rect class="cls-2" x="86.67" y="86.67" width="6.66" height="6.67"/>
  <rect class="cls-2" x="86.67" y="40" width="6.66" height="6.67"/>
  <rect class="cls-2" x="86.67" y="33.34" width="6.66" height="6.66"/>
  <rect class="cls-3" x="80" y="86.67" width="6.67" height="6.67"/>
  <rect class="cls-2" x="80" y="80" width="6.67" height="6.67"/>
  <rect class="cls-2" x="80" y="40" width="6.67" height="6.67"/>
  <rect class="cls-2" x="80" y="33.34" width="6.67" height="6.66"/>
  <rect class="cls-4" x="73.33" y="86.67" width="6.67" height="6.67"/>
  <rect class="cls-3" x="73.33" y="80" width="6.67" height="6.67"/>
  <rect class="cls-2" x="73.33" y="73.34" width="6.67" height="6.66"/>
  <rect class="cls-2" x="73.33" y="66.67" width="6.67" height="6.67"/>
  <rect class="cls-2" x="73.33" y="46.67" width="6.67" height="6.67"/>
  <rect class="cls-2" x="73.33" y="40" width="6.67" height="6.67"/>
  <rect class="cls-2" x="73.33" y="33.34" width="6.67" height="6.66"/>
  <rect class="cls-4" x="66.67" y="86.67" width="6.66" height="6.67"/>
  <rect class="cls-4" x="66.67" y="80" width="6.66" height="6.67"/>
  <rect class="cls-3" x="66.67" y="73.34" width="6.66" height="6.66"/>
  <rect class="cls-2" x="66.67" y="66.67" width="6.66" height="6.67"/>
  <rect class="cls-2" x="66.67" y="60" width="6.66" height="6.67"/>
  <rect class="cls-2" x="66.67" y="53.34" width="6.66" height="6.66"/>
  <rect class="cls-2" x="66.67" y="46.67" width="6.66" height="6.67"/>
  <rect class="cls-2" x="66.67" y="40" width="6.66" height="6.67"/>
  <rect class="cls-2" x="66.67" y="33.34" width="6.66" height="6.66"/>
  <rect class="cls-4" x="60" y="80" width="6.67" height="6.67"/>
  <rect class="cls-3" x="60" y="73.34" width="6.67" height="6.66"/>
  <rect class="cls-3" x="60" y="66.67" width="6.67" height="6.67"/>
  <rect class="cls-3" x="60" y="60" width="6.67" height="6.67"/>
  <rect class="cls-3" x="60" y="53.34" width="6.67" height="6.66"/>
  <rect class="cls-3" x="60" y="46.67" width="6.67" height="6.67"/>
  <rect class="cls-2" x="60" y="40" width="6.67" height="6.67"/>
  <rect class="cls-2" x="60" y="33.34" width="6.67" height="6.66"/>
  <rect class="cls-2" x="60" y="26.67" width="6.67" height="6.67"/>
  <rect class="cls-1" x="53.33" y="73.34" width="6.67" height="6.66"/>
  <rect class="cls-3" x="53.33" y="66.67" width="6.67" height="6.67"/>
  <rect class="cls-3" x="53.33" y="60" width="6.67" height="6.67"/>
  <rect class="cls-3" x="53.33" y="53.34" width="6.67" height="6.66"/>
  <rect class="cls-3" x="53.33" y="46.67" width="6.67" height="6.67"/>
  <rect class="cls-3" x="53.33" y="40" width="6.67" height="6.67"/>
  <rect class="cls-3" x="53.33" y="33.34" width="6.67" height="6.66"/>
  <rect class="cls-2" x="53.33" y="26.67" width="6.67" height="6.67"/>
  <rect class="cls-2" x="53.33" y="20" width="6.67" height="6.67"/>
  <rect class="cls-2" x="53.33" y="13.34" width="6.67" height="6.66"/>
  <rect class="cls-3" x="46.67" y="73.34" width="6.66" height="6.66"/>
  <rect class="cls-3" x="46.67" y="66.67" width="6.66" height="6.67"/>
  <rect class="cls-3" x="46.67" y="60" width="6.66" height="6.67"/>
  <rect class="cls-3" x="46.67" y="53.34" width="6.66" height="6.66"/>
  <rect class="cls-3" x="46.67" y="46.67" width="6.66" height="6.67"/>
  <rect class="cls-3" x="46.67" y="40" width="6.66" height="6.67"/>
  <rect class="cls-3" x="46.67" y="33.34" width="6.66" height="6.66"/>
  <rect class="cls-3" x="46.67" y="26.67" width="6.66" height="6.67"/>
  <rect class="cls-3" x="46.67" y="20" width="6.66" height="6.67"/>
  <rect class="cls-4" x="46.67" y="13.34" width="6.66" height="6.66"/>
  <rect class="cls-4" x="46.67" y="6.67" width="6.66" height="6.67"/>
  <rect class="cls-4" x="46.67" y="0" width="6.66" height="6.67"/>
  <rect class="cls-2" x="40" y="73.34" width="6.67" height="6.66"/>
  <rect class="cls-3" x="40" y="66.67" width="6.67" height="6.67"/>
  <rect class="cls-3" x="40" y="60" width="6.67" height="6.67"/>
  <rect class="cls-3" x="40" y="53.34" width="6.67" height="6.66"/>
  <rect class="cls-3" x="40" y="46.67" width="6.67" height="6.67"/>
  <rect class="cls-3" x="40" y="40" width="6.67" height="6.67"/>
  <rect class="cls-3" x="40" y="33.34" width="6.67" height="6.66"/>
  <rect class="cls-4" x="40" y="26.67" width="6.67" height="6.67"/>
  <rect class="cls-4" x="40" y="20" width="6.67" height="6.67"/>
  <rect class="cls-4" x="40" y="13.34" width="6.67" height="6.66"/>
  <rect class="cls-2" x="33.33" y="80" width="6.67" height="6.67"/>
  <rect class="cls-3" x="33.33" y="73.34" width="6.67" height="6.66"/>
  <rect class="cls-3" x="33.33" y="66.67" width="6.67" height="6.67"/>
  <rect class="cls-3" x="33.33" y="60" width="6.67" height="6.67"/>
  <rect class="cls-3" x="33.33" y="53.34" width="6.67" height="6.66"/>
  <rect class="cls-3" x="33.33" y="46.67" width="6.67" height="6.67"/>
  <rect class="cls-3" x="33.33" y="40" width="6.67" height="6.67"/>
  <rect class="cls-4" x="33.33" y="33.34" width="6.67" height="6.66"/>
  <rect class="cls-4" x="33.33" y="26.67" width="6.67" height="6.67"/>
  <rect class="cls-2" x="26.67" y="86.67" width="6.66" height="6.67"/>
  <rect class="cls-3" x="26.67" y="80" width="6.66" height="6.67"/>
  <rect class="cls-3" x="26.67" y="73.34" width="6.66" height="6.66"/>
  <rect class="cls-3" x="26.67" y="66.67" width="6.66" height="6.67"/>
  <rect class="cls-4" x="26.67" y="60" width="6.66" height="6.67"/>
  <rect class="cls-4" x="26.67" y="53.34" width="6.66" height="6.66"/>
  <rect class="cls-4" x="26.67" y="46.67" width="6.66" height="6.67"/>
  <rect class="cls-3" x="26.67" y="40" width="6.66" height="6.67"/>
  <rect class="cls-3" x="26.67" y="33.34" width="6.66" height="6.66"/>
  <rect class="cls-2" x="20" y="86.67" width="6.67" height="6.67"/>
  <rect class="cls-3" x="20" y="80" width="6.67" height="6.67"/>
  <rect class="cls-4" x="20" y="73.34" width="6.67" height="6.66"/>
  <rect class="cls-4" x="20" y="66.67" width="6.67" height="6.67"/>
  <rect class="cls-4" x="20" y="46.67" width="6.67" height="6.67"/>
  <rect class="cls-4" x="20" y="40" width="6.67" height="6.67"/>
  <rect class="cls-3" x="20" y="33.34" width="6.67" height="6.66"/>
  <rect class="cls-3" x="13.33" y="86.67" width="6.67" height="6.67"/>
  <rect class="cls-4" x="13.33" y="80" width="6.67" height="6.67"/>
  <rect class="cls-4" x="13.33" y="40" width="6.67" height="6.67"/>
  <rect class="cls-3" x="13.33" y="33.34" width="6.67" height="6.66"/>
  <rect class="cls-3" x="6.67" y="93.34" width="6.66" height="6.66"/>
  <rect class="cls-1" x="6.67" y="86.67" width="6.66" height="6.67"/>
  <rect class="cls-4" x="6.67" y="40" width="6.66" height="6.67"/>
  <rect class="cls-4" x="6.67" y="33.34" width="6.66" height="6.66"/>
  <rect class="cls-1" x="0" y="93.34" width="6.67" height="6.66"/>
  <rect class="cls-4" x="0" y="33.34" width="6.67" height="6.66"/>
</svg>