<?xml version="1.0" encoding="UTF-8"?>
<svg id="Layer_3" data-name="Layer 3" xmlns="http://www.w3.org/2000/svg" viewBox="0 0 100 100">
  <defs>
    <style>
      .cls-1 {
        fill: #fd6;
      }

      .cls-2 {
        fill: #ffbc6f;
      }

      .cls-3 {
        fill: #fff7d0;
      }
    </style>
  </defs>
  <rect class="cls-1" x="93.83" y="93.33" width="6.67" height="6.67"/>
  <rect class="cls-2" x="93.83" y="33.33" width="6.67" height="6.67"/>
  <rect class="cls-1" x="87.17" y="93.33" width="6.66" height="6.67"/>
  <rect class="cls-2" x="87.17" y="86.67" width="6.66" height="6.66"/>
  <rect class="cls-2" x="87.17" y="40" width="6.66" height="6.67"/>
  <rect class="cls-2" x="87.17" y="33.33" width="6.66" height="6.67"/>
  <rect class="cls-1" x="80.5" y="86.67" width="6.67" height="6.66"/>
  <rect class="cls-2" x="80.5" y="80" width="6.67" height="6.67"/>
  <rect class="cls-2" x="80.5" y="40" width="6.67" height="6.67"/>
  <rect class="cls-2" x="80.5" y="33.33" width="6.67" height="6.67"/>
  <rect class="cls-3" x="73.83" y="86.67" width="6.67" height="6.66"/>
  <rect class="cls-1" x="73.83" y="80" width="6.67" height="6.67"/>
  <rect class="cls-2" x="73.83" y="73.33" width="6.67" height="6.67"/>
  <rect class="cls-2" x="73.83" y="66.67" width="6.67" height="6.66"/>
  <rect class="cls-2" x="73.83" y="46.67" width="6.67" height="6.66"/>
  <rect class="cls-2" x="73.83" y="40" width="6.67" height="6.67"/>
  <rect class="cls-2" x="73.83" y="33.33" width="6.67" height="6.67"/>
  <rect class="cls-3" x="67.17" y="86.67" width="6.66" height="6.66"/>
  <rect class="cls-3" x="67.17" y="80" width="6.66" height="6.67"/>
  <rect class="cls-1" x="67.17" y="73.33" width="6.66" height="6.67"/>
  <rect class="cls-2" x="67.17" y="66.67" width="6.66" height="6.66"/>
  <rect class="cls-2" x="67.17" y="60" width="6.66" height="6.67"/>
  <rect class="cls-2" x="67.17" y="53.33" width="6.66" height="6.67"/>
  <rect class="cls-2" x="67.17" y="46.67" width="6.66" height="6.66"/>
  <rect class="cls-2" x="67.17" y="40" width="6.66" height="6.67"/>
  <rect class="cls-2" x="67.17" y="33.33" width="6.66" height="6.67"/>
  <rect class="cls-3" x="60.5" y="80" width="6.67" height="6.67"/>
  <rect class="cls-1" x="60.5" y="73.33" width="6.67" height="6.67"/>
  <rect class="cls-1" x="60.5" y="66.67" width="6.67" height="6.66"/>
  <rect class="cls-1" x="60.5" y="60" width="6.67" height="6.67"/>
  <rect class="cls-1" x="60.5" y="53.33" width="6.67" height="6.67"/>
  <rect class="cls-1" x="60.5" y="46.67" width="6.67" height="6.66"/>
  <rect class="cls-2" x="60.5" y="40" width="6.67" height="6.67"/>
  <rect class="cls-2" x="60.5" y="33.33" width="6.67" height="6.67"/>
  <rect class="cls-2" x="60.5" y="26.67" width="6.67" height="6.66"/>
  <rect class="cls-3" x="53.83" y="73.33" width="6.67" height="6.67"/>
  <rect class="cls-1" x="53.83" y="66.67" width="6.67" height="6.66"/>
  <rect class="cls-1" x="53.83" y="60" width="6.67" height="6.67"/>
  <rect class="cls-1" x="53.83" y="53.33" width="6.67" height="6.67"/>
  <rect class="cls-1" x="53.83" y="46.67" width="6.67" height="6.66"/>
  <rect class="cls-1" x="53.83" y="40" width="6.67" height="6.67"/>
  <rect class="cls-1" x="53.83" y="33.33" width="6.67" height="6.67"/>
  <rect class="cls-2" x="53.83" y="26.67" width="6.67" height="6.66"/>
  <rect class="cls-2" x="53.83" y="20" width="6.67" height="6.67"/>
  <rect class="cls-2" x="53.83" y="13.33" width="6.67" height="6.67"/>
  <rect class="cls-1" x="47.17" y="73.33" width="6.66" height="6.67"/>
  <rect class="cls-1" x="47.17" y="66.67" width="6.66" height="6.66"/>
  <rect class="cls-1" x="47.17" y="60" width="6.66" height="6.67"/>
  <rect class="cls-1" x="47.17" y="53.33" width="6.66" height="6.67"/>
  <rect class="cls-1" x="47.17" y="46.67" width="6.66" height="6.66"/>
  <rect class="cls-1" x="47.17" y="40" width="6.66" height="6.67"/>
  <rect class="cls-1" x="47.17" y="33.33" width="6.66" height="6.67"/>
  <rect class="cls-1" x="47.17" y="26.67" width="6.66" height="6.66"/>
  <rect class="cls-1" x="47.17" y="20" width="6.66" height="6.67"/>
  <rect class="cls-3" x="47.17" y="13.33" width="6.66" height="6.67"/>
  <rect class="cls-3" x="47.17" y="6.67" width="6.66" height="6.66"/>
  <rect class="cls-3" x="47.17" width="6.66" height="6.67"/>
  <rect class="cls-2" x="40.5" y="73.33" width="6.67" height="6.67"/>
  <rect class="cls-1" x="40.5" y="66.67" width="6.67" height="6.66"/>
  <rect class="cls-1" x="40.5" y="60" width="6.67" height="6.67"/>
  <rect class="cls-1" x="40.5" y="53.33" width="6.67" height="6.67"/>
  <rect class="cls-1" x="40.5" y="46.67" width="6.67" height="6.66"/>
  <rect class="cls-1" x="40.5" y="40" width="6.67" height="6.67"/>
  <rect class="cls-1" x="40.5" y="33.33" width="6.67" height="6.67"/>
  <rect class="cls-3" x="40.5" y="26.67" width="6.67" height="6.66"/>
  <rect class="cls-3" x="40.5" y="20" width="6.67" height="6.67"/>
  <rect class="cls-3" x="40.5" y="13.33" width="6.67" height="6.67"/>
  <rect class="cls-2" x="33.83" y="80" width="6.67" height="6.67"/>
  <rect class="cls-1" x="33.83" y="73.33" width="6.67" height="6.67"/>
  <rect class="cls-1" x="33.83" y="66.67" width="6.67" height="6.66"/>
  <rect class="cls-1" x="33.83" y="60" width="6.67" height="6.67"/>
  <rect class="cls-1" x="33.83" y="53.33" width="6.67" height="6.67"/>
  <rect class="cls-1" x="33.83" y="46.67" width="6.67" height="6.66"/>
  <rect class="cls-1" x="33.83" y="40" width="6.67" height="6.67"/>
  <rect class="cls-3" x="33.83" y="33.33" width="6.67" height="6.67"/>
  <rect class="cls-3" x="33.83" y="26.67" width="6.67" height="6.66"/>
  <rect class="cls-2" x="27.17" y="86.67" width="6.66" height="6.66"/>
  <rect class="cls-1" x="27.17" y="80" width="6.66" height="6.67"/>
  <rect class="cls-1" x="27.17" y="73.33" width="6.66" height="6.67"/>
  <rect class="cls-1" x="27.17" y="66.67" width="6.66" height="6.66"/>
  <rect class="cls-3" x="27.17" y="60" width="6.66" height="6.67"/>
  <rect class="cls-3" x="27.17" y="53.33" width="6.66" height="6.67"/>
  <rect class="cls-3" x="27.17" y="46.67" width="6.66" height="6.66"/>
  <rect class="cls-1" x="27.17" y="40" width="6.66" height="6.67"/>
  <rect class="cls-1" x="27.17" y="33.33" width="6.66" height="6.67"/>
  <rect class="cls-2" x="20.5" y="86.67" width="6.67" height="6.66"/>
  <rect class="cls-1" x="20.5" y="80" width="6.67" height="6.67"/>
  <rect class="cls-3" x="20.5" y="73.33" width="6.67" height="6.67"/>
  <rect class="cls-3" x="20.5" y="66.67" width="6.67" height="6.66"/>
  <rect class="cls-3" x="20.5" y="46.67" width="6.67" height="6.66"/>
  <rect class="cls-3" x="20.5" y="40" width="6.67" height="6.67"/>
  <rect class="cls-1" x="20.5" y="33.33" width="6.67" height="6.67"/>
  <rect class="cls-1" x="13.83" y="86.67" width="6.67" height="6.66"/>
  <rect class="cls-3" x="13.83" y="80" width="6.67" height="6.67"/>
  <rect class="cls-3" x="13.83" y="40" width="6.67" height="6.67"/>
  <rect class="cls-1" x="13.83" y="33.33" width="6.67" height="6.67"/>
  <rect class="cls-1" x="7.17" y="93.33" width="6.66" height="6.67"/>
  <rect class="cls-3" x="7.17" y="86.67" width="6.66" height="6.66"/>
  <rect class="cls-3" x="7.17" y="40" width="6.66" height="6.67"/>
  <rect class="cls-3" x="7.17" y="33.33" width="6.66" height="6.67"/>
  <rect class="cls-3" x=".5" y="93.33" width="6.67" height="6.67"/>
  <rect class="cls-3" x=".5" y="33.33" width="6.67" height="6.67"/>
</svg>