<?xml version="1.0" encoding="UTF-8"?>
<svg id="Layer_8" data-name="Layer 8" xmlns="http://www.w3.org/2000/svg" viewBox="0 0 360 64">
  <defs>
    <style>
      .cls-1 {
        fill: #66a0a3;
      }

      .cls-2 {
        fill: #9dcece;
      }

      .cls-3 {
        fill: #3a5a5f;
      }

      .cls-4 {
        fill: #1e3638;
      }

      .cls-5 {
        fill: none;
      }
    </style>
  </defs>
  <rect class="cls-5" x="-30" y="-8" width="450" height="80"/>
  <g>
    <rect class="cls-4" x="352.5" y="40" width="7.5" height="8"/>
    <rect class="cls-4" x="352.5" y="32" width="7.5" height="8"/>
    <rect class="cls-4" x="352.5" y="24" width="7.5" height="8"/>
    <rect class="cls-4" x="352.5" y="16" width="7.5" height="8"/>
    <rect class="cls-1" x="345" y="48" width="7.5" height="8"/>
    <rect class="cls-1" x="345" y="40" width="7.5" height="8"/>
    <rect class="cls-3" x="345" y="16" width="7.5" height="8"/>
    <rect class="cls-3" x="345" y="8" width="7.5" height="8"/>
    <rect class="cls-3" x="337.5" y="56" width="7.5" height="8"/>
    <rect class="cls-2" x="337.5" y="48" width="7.5" height="8"/>
    <rect class="cls-3" x="337.5" y="8" width="7.5" height="8"/>
    <rect class="cls-3" x="337.5" y="0" width="7.5" height="8"/>
    <rect class="cls-4" x="330" y="56" width="7.5" height="8"/>
    <rect class="cls-4" x="330" y="0" width="7.5" height="8"/>
    <rect class="cls-4" x="322.5" y="56" width="7.5" height="8"/>
    <rect class="cls-4" x="322.5" y="0" width="7.5" height="8"/>
    <rect class="cls-4" x="315" y="56" width="7.5" height="8"/>
    <rect class="cls-4" x="315" y="0" width="7.5" height="8"/>
    <rect class="cls-4" x="307.5" y="56" width="7.5" height="8"/>
    <rect class="cls-4" x="307.5" y="0" width="7.5" height="8"/>
    <rect class="cls-4" x="300" y="56" width="7.5" height="8"/>
    <rect class="cls-4" x="300" y="0" width="7.5" height="8"/>
    <rect class="cls-3" x="292.5" y="56" width="7.5" height="8"/>
    <rect class="cls-4" x="292.5" y="0" width="7.5" height="8"/>
    <rect class="cls-3" x="285" y="56" width="7.5" height="8"/>
    <rect class="cls-3" x="285" y="0" width="7.5" height="8"/>
    <rect class="cls-2" x="277.5" y="56" width="7.5" height="8"/>
    <rect class="cls-2" x="277.5" y="0" width="7.5" height="8"/>
    <rect class="cls-2" x="270" y="56" width="7.5" height="8"/>
    <rect class="cls-2" x="270" y="0" width="7.5" height="8"/>
    <rect class="cls-1" x="262.5" y="56" width="7.5" height="8"/>
    <rect class="cls-1" x="262.5" y="0" width="7.5" height="8"/>
    <rect class="cls-1" x="255" y="56" width="7.5" height="8"/>
    <rect class="cls-1" x="255" y="0" width="7.5" height="8"/>
    <rect class="cls-1" x="247.5" y="56" width="7.5" height="8"/>
    <rect class="cls-1" x="247.5" y="0" width="7.5" height="8"/>
    <rect class="cls-4" x="240" y="56" width="7.5" height="8"/>
    <rect class="cls-3" x="240" y="0" width="7.5" height="8"/>
    <rect class="cls-4" x="232.5" y="56" width="7.5" height="8"/>
    <rect class="cls-3" x="232.5" y="0" width="7.5" height="8"/>
    <rect class="cls-4" x="225" y="56" width="7.5" height="8"/>
    <rect class="cls-3" x="225" y="0" width="7.5" height="8"/>
    <rect class="cls-3" x="217.5" y="56" width="7.5" height="8"/>
    <rect class="cls-3" x="217.5" y="0" width="7.5" height="8"/>
    <rect class="cls-3" x="210" y="56" width="7.5" height="8"/>
    <rect class="cls-1" x="210" y="0" width="7.5" height="8"/>
    <rect class="cls-3" x="202.5" y="56" width="7.5" height="8"/>
    <rect class="cls-1" x="202.5" y="0" width="7.5" height="8"/>
    <rect class="cls-3" x="195" y="56" width="7.5" height="8"/>
    <rect class="cls-3" x="195" y="0" width="7.5" height="8"/>
    <rect class="cls-3" x="187.5" y="56" width="7.5" height="8"/>
    <rect class="cls-3" x="187.5" y="0" width="7.5" height="8"/>
    <rect class="cls-3" x="180" y="56" width="7.5" height="8"/>
    <rect class="cls-3" x="180" y="0" width="7.5" height="8"/>
    <rect class="cls-3" x="172.5" y="56" width="7.5" height="8"/>
    <rect class="cls-3" x="172.5" y="0" width="7.5" height="8"/>
    <rect class="cls-3" x="165" y="56" width="7.5" height="8"/>
    <rect class="cls-3" x="165" y="0" width="7.5" height="8"/>
    <rect class="cls-3" x="157.5" y="56" width="7.5" height="8"/>
    <rect class="cls-3" x="157.5" y="0" width="7.5" height="8"/>
    <rect class="cls-1" x="150" y="56" width="7.5" height="8"/>
    <rect class="cls-3" x="150" y="0" width="7.5" height="8"/>
    <rect class="cls-3" x="142.5" y="56" width="7.5" height="8"/>
    <rect class="cls-3" x="142.5" y="0" width="7.5" height="8"/>
    <rect class="cls-3" x="135" y="56" width="7.5" height="8"/>
    <rect class="cls-3" x="135" y="0" width="7.5" height="8"/>
    <rect class="cls-3" x="127.5" y="56" width="7.5" height="8"/>
    <rect class="cls-3" x="127.5" y="0" width="7.5" height="8"/>
    <rect class="cls-3" x="120" y="56" width="7.5" height="8"/>
    <rect class="cls-3" x="120" y="0" width="7.5" height="8"/>
    <rect class="cls-3" x="112.5" y="56" width="7.5" height="8"/>
    <rect class="cls-3" x="112.5" y="0" width="7.5" height="8"/>
    <rect class="cls-1" x="105" y="56" width="7.5" height="8"/>
    <rect class="cls-1" x="105" y="0" width="7.5" height="8"/>
    <rect class="cls-3" x="97.5" y="56" width="7.5" height="8"/>
    <rect class="cls-4" x="97.5" y="0" width="7.5" height="8"/>
    <rect class="cls-3" x="90" y="56" width="7.5" height="8"/>
    <rect class="cls-4" x="90" y="0" width="7.5" height="8"/>
    <rect class="cls-1" x="82.5" y="56" width="7.5" height="8"/>
    <rect class="cls-4" x="82.5" y="0" width="7.5" height="8"/>
    <rect class="cls-3" x="75" y="56" width="7.5" height="8"/>
    <rect class="cls-1" x="75" y="0" width="7.5" height="8"/>
    <rect class="cls-1" x="67.5" y="56" width="7.5" height="8"/>
    <rect class="cls-1" x="67.5" y="0" width="7.5" height="8"/>
    <rect class="cls-1" x="60" y="56" width="7.5" height="8"/>
    <rect class="cls-3" x="60" y="0" width="7.5" height="8"/>
    <rect class="cls-1" x="52.5" y="56" width="7.5" height="8"/>
    <rect class="cls-1" x="52.5" y="0" width="7.5" height="8"/>
    <rect class="cls-1" x="45" y="56" width="7.5" height="8"/>
    <rect class="cls-1" x="45" y="0" width="7.5" height="8"/>
    <rect class="cls-2" x="37.5" y="56" width="7.5" height="8"/>
    <rect class="cls-1" x="37.5" y="0" width="7.5" height="8"/>
    <rect class="cls-2" x="30" y="56" width="7.5" height="8"/>
    <rect class="cls-2" x="30" y="0" width="7.5" height="8"/>
    <rect class="cls-2" x="22.5" y="56" width="7.5" height="8"/>
    <rect class="cls-2" x="22.5" y="0" width="7.5" height="8"/>
    <rect class="cls-4" x="15" y="56" width="7.5" height="8"/>
    <rect class="cls-4" x="15" y="48" width="7.5" height="8"/>
    <rect class="cls-3" x="15" y="8" width="7.5" height="8"/>
    <rect class="cls-3" x="15" y="0" width="7.5" height="8"/>
    <rect class="cls-3" x="7.5" y="48" width="7.5" height="8"/>
    <rect class="cls-3" x="7.5" y="40" width="7.5" height="8"/>
    <rect class="cls-3" x="7.5" y="16" width="7.5" height="8"/>
    <rect class="cls-3" x="7.5" y="8" width="7.5" height="8"/>
    <rect class="cls-3" x="0" y="40" width="7.5" height="8"/>
    <rect class="cls-2" x="0" y="32" width="7.5" height="8"/>
    <rect class="cls-2" x="0" y="24" width="7.5" height="8"/>
    <rect class="cls-1" x="0" y="16" width="7.5" height="8"/>
  </g>
</svg>