<?xml version="1.0" encoding="UTF-8"?>
<svg id="Layer_8" data-name="Layer 8" xmlns="http://www.w3.org/2000/svg" viewBox="0 0 360 64">
  <defs>
    <style>
      .cls-1 {
        fill: #e6ffdc;
      }

      .cls-2 {
        fill: #78cd51;
      }

      .cls-3 {
        fill: #b4f696;
      }

      .cls-4 {
        fill: #c1ffaa;
      }

      .cls-5 {
        fill: #a1f37f;
      }

      .cls-6 {
        fill: none;
      }
    </style>
  </defs>
  <rect class="cls-6" x="-30.6" y="-6.91" width="450" height="80"/>
  <g>
    <rect class="cls-2" x="346.44" y="32" width="7.5" height="8"/>
    <rect class="cls-2" x="346.44" y="24" width="7.5" height="8"/>
    <rect class="cls-2" x="338.94" y="40" width="7.5" height="8"/>
    <rect class="cls-2" x="338.94" y="32" width="7.5" height="8"/>
    <rect class="cls-2" x="338.94" y="24" width="7.5" height="8"/>
    <rect class="cls-2" x="338.94" y="16" width="7.5" height="8"/>
    <rect class="cls-2" x="331.44" y="48" width="7.5" height="8"/>
    <rect class="cls-2" x="331.44" y="40" width="7.5" height="8"/>
    <rect class="cls-2" x="331.44" y="32" width="7.5" height="8"/>
    <rect class="cls-2" x="331.44" y="24" width="7.5" height="8"/>
    <rect class="cls-2" x="331.44" y="16" width="7.5" height="8"/>
    <rect class="cls-2" x="331.44" y="8" width="7.5" height="8"/>
    <rect class="cls-2" x="323.94" y="48" width="7.5" height="8"/>
    <rect class="cls-2" x="323.94" y="40" width="7.5" height="8"/>
    <rect class="cls-5" x="323.94" y="32" width="7.5" height="8"/>
    <rect class="cls-5" x="323.94" y="24" width="7.5" height="8"/>
    <rect class="cls-2" x="323.94" y="16" width="7.5" height="8"/>
    <rect class="cls-2" x="323.94" y="8" width="7.5" height="8"/>
    <rect class="cls-2" x="316.44" y="48" width="7.5" height="8"/>
    <rect class="cls-5" x="316.44" y="40" width="7.5" height="8"/>
    <rect class="cls-5" x="316.44" y="32" width="7.5" height="8"/>
    <rect class="cls-3" x="316.44" y="24" width="7.5" height="8"/>
    <rect class="cls-5" x="316.44" y="16" width="7.5" height="8"/>
    <rect class="cls-2" x="316.44" y="8" width="7.5" height="8"/>
    <rect class="cls-2" x="308.94" y="48" width="7.5" height="8"/>
    <rect class="cls-5" x="308.94" y="40" width="7.5" height="8"/>
    <rect class="cls-5" x="308.94" y="32" width="7.5" height="8"/>
    <rect class="cls-3" x="308.94" y="24" width="7.5" height="8"/>
    <rect class="cls-5" x="308.94" y="16" width="7.5" height="8"/>
    <rect class="cls-2" x="308.94" y="8" width="7.5" height="8"/>
    <rect class="cls-2" x="301.44" y="48" width="7.5" height="8"/>
    <rect class="cls-5" x="301.44" y="40" width="7.5" height="8"/>
    <rect class="cls-3" x="301.44" y="32" width="7.5" height="8"/>
    <rect class="cls-3" x="301.44" y="24" width="7.5" height="8"/>
    <rect class="cls-5" x="301.44" y="16" width="7.5" height="8"/>
    <rect class="cls-2" x="301.44" y="8" width="7.5" height="8"/>
    <rect class="cls-2" x="293.94" y="48" width="7.5" height="8"/>
    <rect class="cls-5" x="293.94" y="40" width="7.5" height="8"/>
    <rect class="cls-3" x="293.94" y="32" width="7.5" height="8"/>
    <rect class="cls-3" x="293.94" y="24" width="7.5" height="8"/>
    <rect class="cls-5" x="293.94" y="16" width="7.5" height="8"/>
    <rect class="cls-2" x="293.94" y="8" width="7.5" height="8"/>
    <rect class="cls-2" x="286.44" y="48" width="7.5" height="8"/>
    <rect class="cls-5" x="286.44" y="40" width="7.5" height="8"/>
    <rect class="cls-3" x="286.44" y="32" width="7.5" height="8"/>
    <rect class="cls-4" x="286.44" y="24" width="7.5" height="8"/>
    <rect class="cls-5" x="286.44" y="16" width="7.5" height="8"/>
    <rect class="cls-2" x="286.44" y="8" width="7.5" height="8"/>
    <rect class="cls-2" x="278.94" y="48" width="7.5" height="8"/>
    <rect class="cls-5" x="278.94" y="40" width="7.5" height="8"/>
    <rect class="cls-3" x="278.94" y="32" width="7.5" height="8"/>
    <rect class="cls-4" x="278.94" y="24" width="7.5" height="8"/>
    <rect class="cls-5" x="278.94" y="16" width="7.5" height="8"/>
    <rect class="cls-2" x="278.94" y="8" width="7.5" height="8"/>
    <rect class="cls-2" x="271.44" y="48" width="7.5" height="8"/>
    <rect class="cls-5" x="271.44" y="40" width="7.5" height="8"/>
    <rect class="cls-4" x="271.44" y="32" width="7.5" height="8"/>
    <rect class="cls-4" x="271.44" y="24" width="7.5" height="8"/>
    <rect class="cls-5" x="271.44" y="16" width="7.5" height="8"/>
    <rect class="cls-2" x="271.44" y="8" width="7.5" height="8"/>
    <rect class="cls-2" x="263.94" y="48" width="7.5" height="8"/>
    <rect class="cls-5" x="263.94" y="40" width="7.5" height="8"/>
    <rect class="cls-4" x="263.94" y="32" width="7.5" height="8"/>
    <rect class="cls-4" x="263.94" y="24" width="7.5" height="8"/>
    <rect class="cls-5" x="263.94" y="16" width="7.5" height="8"/>
    <rect class="cls-2" x="263.94" y="8" width="7.5" height="8"/>
    <rect class="cls-2" x="256.44" y="48" width="7.5" height="8"/>
    <rect class="cls-5" x="256.44" y="40" width="7.5" height="8"/>
    <rect class="cls-4" x="256.44" y="32" width="7.5" height="8"/>
    <rect class="cls-4" x="256.44" y="24" width="7.5" height="8"/>
    <rect class="cls-5" x="256.44" y="16" width="7.5" height="8"/>
    <rect class="cls-2" x="256.44" y="8" width="7.5" height="8"/>
    <rect class="cls-2" x="248.94" y="48" width="7.5" height="8"/>
    <rect class="cls-5" x="248.94" y="40" width="7.5" height="8"/>
    <rect class="cls-4" x="248.94" y="32" width="7.5" height="8"/>
    <rect class="cls-4" x="248.94" y="24" width="7.5" height="8"/>
    <rect class="cls-5" x="248.94" y="16" width="7.5" height="8"/>
    <rect class="cls-2" x="248.94" y="8" width="7.5" height="8"/>
    <rect class="cls-2" x="241.44" y="48" width="7.5" height="8"/>
    <rect class="cls-5" x="241.44" y="40" width="7.5" height="8"/>
    <rect class="cls-4" x="241.44" y="32" width="7.5" height="8"/>
    <rect class="cls-4" x="241.44" y="24" width="7.5" height="8"/>
    <rect class="cls-5" x="241.44" y="16" width="7.5" height="8"/>
    <rect class="cls-2" x="241.44" y="8" width="7.5" height="8"/>
    <rect class="cls-2" x="233.94" y="48" width="7.5" height="8"/>
    <rect class="cls-5" x="233.94" y="40" width="7.5" height="8"/>
    <rect class="cls-4" x="233.94" y="32" width="7.5" height="8"/>
    <rect class="cls-4" x="233.94" y="24" width="7.5" height="8"/>
    <rect class="cls-5" x="233.94" y="16" width="7.5" height="8"/>
    <rect class="cls-2" x="233.94" y="8" width="7.5" height="8"/>
    <rect class="cls-2" x="226.44" y="48" width="7.5" height="8"/>
    <rect class="cls-5" x="226.44" y="40" width="7.5" height="8"/>
    <rect class="cls-4" x="226.44" y="32" width="7.5" height="8"/>
    <rect class="cls-4" x="226.44" y="24" width="7.5" height="8"/>
    <rect class="cls-5" x="226.44" y="16" width="7.5" height="8"/>
    <rect class="cls-2" x="226.44" y="8" width="7.5" height="8"/>
    <rect class="cls-2" x="218.94" y="48" width="7.5" height="8"/>
    <rect class="cls-5" x="218.94" y="40" width="7.5" height="8"/>
    <rect class="cls-4" x="218.94" y="32" width="7.5" height="8"/>
    <rect class="cls-4" x="218.94" y="24" width="7.5" height="8"/>
    <rect class="cls-5" x="218.94" y="16" width="7.5" height="8"/>
    <rect class="cls-2" x="218.94" y="8" width="7.5" height="8"/>
    <rect class="cls-2" x="211.44" y="48" width="7.5" height="8"/>
    <rect class="cls-5" x="211.44" y="40" width="7.5" height="8"/>
    <rect class="cls-1" x="211.44" y="32" width="7.5" height="8"/>
    <rect class="cls-4" x="211.44" y="24" width="7.5" height="8"/>
    <rect class="cls-5" x="211.44" y="16" width="7.5" height="8"/>
    <rect class="cls-2" x="211.44" y="8" width="7.5" height="8"/>
    <rect class="cls-2" x="203.94" y="48" width="7.5" height="8"/>
    <rect class="cls-5" x="203.94" y="40" width="7.5" height="8"/>
    <rect class="cls-1" x="203.94" y="32" width="7.5" height="8"/>
    <rect class="cls-4" x="203.94" y="24" width="7.5" height="8"/>
    <rect class="cls-5" x="203.94" y="16" width="7.5" height="8"/>
    <rect class="cls-2" x="203.94" y="8" width="7.5" height="8"/>
    <rect class="cls-2" x="196.44" y="48" width="7.5" height="8"/>
    <rect class="cls-5" x="196.44" y="40" width="7.5" height="8"/>
    <rect class="cls-1" x="196.44" y="32" width="7.5" height="8"/>
    <rect class="cls-4" x="196.44" y="24" width="7.5" height="8"/>
    <rect class="cls-5" x="196.44" y="16" width="7.5" height="8"/>
    <rect class="cls-2" x="196.44" y="8" width="7.5" height="8"/>
    <rect class="cls-2" x="188.94" y="48" width="7.5" height="8"/>
    <rect class="cls-5" x="188.94" y="40" width="7.5" height="8"/>
    <rect class="cls-1" x="188.94" y="32" width="7.5" height="8"/>
    <rect class="cls-1" x="188.94" y="24" width="7.5" height="8"/>
    <rect class="cls-5" x="188.94" y="16" width="7.5" height="8"/>
    <rect class="cls-2" x="188.94" y="8" width="7.5" height="8"/>
    <rect class="cls-2" x="181.44" y="48" width="7.5" height="8"/>
    <rect class="cls-5" x="181.44" y="40" width="7.5" height="8"/>
    <rect class="cls-1" x="181.44" y="32" width="7.5" height="8"/>
    <rect class="cls-1" x="181.44" y="24" width="7.5" height="8"/>
    <rect class="cls-5" x="181.44" y="16" width="7.5" height="8"/>
    <rect class="cls-2" x="181.44" y="8" width="7.5" height="8"/>
    <rect class="cls-2" x="173.94" y="48" width="7.5" height="8"/>
    <rect class="cls-5" x="173.94" y="40" width="7.5" height="8"/>
    <rect class="cls-1" x="173.94" y="32" width="7.5" height="8"/>
    <rect class="cls-1" x="173.94" y="24" width="7.5" height="8"/>
    <rect class="cls-5" x="173.94" y="16" width="7.5" height="8"/>
    <rect class="cls-2" x="173.94" y="8" width="7.5" height="8"/>
    <rect class="cls-2" x="166.44" y="48" width="7.5" height="8"/>
    <rect class="cls-5" x="166.44" y="40" width="7.5" height="8"/>
    <rect class="cls-1" x="166.44" y="32" width="7.5" height="8"/>
    <rect class="cls-1" x="166.44" y="24" width="7.5" height="8"/>
    <rect class="cls-5" x="166.44" y="16" width="7.5" height="8"/>
    <rect class="cls-2" x="166.44" y="8" width="7.5" height="8"/>
    <rect class="cls-2" x="158.94" y="48" width="7.5" height="8"/>
    <rect class="cls-5" x="158.94" y="40" width="7.5" height="8"/>
    <rect class="cls-1" x="158.94" y="32" width="7.5" height="8"/>
    <rect class="cls-4" x="158.94" y="24" width="7.5" height="8"/>
    <rect class="cls-5" x="158.94" y="16" width="7.5" height="8"/>
    <rect class="cls-2" x="158.94" y="8" width="7.5" height="8"/>
    <rect class="cls-2" x="151.44" y="48" width="7.5" height="8"/>
    <rect class="cls-5" x="151.44" y="40" width="7.5" height="8"/>
    <rect class="cls-1" x="151.44" y="32" width="7.5" height="8"/>
    <rect class="cls-4" x="151.44" y="24" width="7.5" height="8"/>
    <rect class="cls-5" x="151.44" y="16" width="7.5" height="8"/>
    <rect class="cls-2" x="151.44" y="8" width="7.5" height="8"/>
    <rect class="cls-2" x="143.94" y="48" width="7.5" height="8"/>
    <rect class="cls-5" x="143.94" y="40" width="7.5" height="8"/>
    <rect class="cls-1" x="143.94" y="32" width="7.5" height="8"/>
    <rect class="cls-4" x="143.94" y="24" width="7.5" height="8"/>
    <rect class="cls-5" x="143.94" y="16" width="7.5" height="8"/>
    <rect class="cls-2" x="143.94" y="8" width="7.5" height="8"/>
    <rect class="cls-2" x="136.44" y="48" width="7.5" height="8"/>
    <rect class="cls-5" x="136.44" y="40" width="7.5" height="8"/>
    <rect class="cls-4" x="136.44" y="32" width="7.5" height="8"/>
    <rect class="cls-4" x="136.44" y="24" width="7.5" height="8"/>
    <rect class="cls-5" x="136.44" y="16" width="7.5" height="8"/>
    <rect class="cls-2" x="136.44" y="8" width="7.5" height="8"/>
    <rect class="cls-2" x="128.94" y="48" width="7.5" height="8"/>
    <rect class="cls-5" x="128.94" y="40" width="7.5" height="8"/>
    <rect class="cls-4" x="128.94" y="32" width="7.5" height="8"/>
    <rect class="cls-4" x="128.94" y="24" width="7.5" height="8"/>
    <rect class="cls-5" x="128.94" y="16" width="7.5" height="8"/>
    <rect class="cls-2" x="128.94" y="8" width="7.5" height="8"/>
    <rect class="cls-2" x="121.44" y="48" width="7.5" height="8"/>
    <rect class="cls-5" x="121.44" y="40" width="7.5" height="8"/>
    <rect class="cls-4" x="121.44" y="32" width="7.5" height="8"/>
    <rect class="cls-4" x="121.44" y="24" width="7.5" height="8"/>
    <rect class="cls-5" x="121.44" y="16" width="7.5" height="8"/>
    <rect class="cls-2" x="121.44" y="8" width="7.5" height="8"/>
    <rect class="cls-2" x="113.94" y="48" width="7.5" height="8"/>
    <rect class="cls-5" x="113.94" y="40" width="7.5" height="8"/>
    <rect class="cls-4" x="113.94" y="32" width="7.5" height="8"/>
    <rect class="cls-4" x="113.94" y="24" width="7.5" height="8"/>
    <rect class="cls-5" x="113.94" y="16" width="7.5" height="8"/>
    <rect class="cls-2" x="113.94" y="8" width="7.5" height="8"/>
    <rect class="cls-2" x="106.44" y="48" width="7.5" height="8"/>
    <rect class="cls-5" x="106.44" y="40" width="7.5" height="8"/>
    <rect class="cls-4" x="106.44" y="32" width="7.5" height="8"/>
    <rect class="cls-4" x="106.44" y="24" width="7.5" height="8"/>
    <rect class="cls-5" x="106.44" y="16" width="7.5" height="8"/>
    <rect class="cls-2" x="106.44" y="8" width="7.5" height="8"/>
    <rect class="cls-2" x="98.94" y="48" width="7.5" height="8"/>
    <rect class="cls-5" x="98.94" y="40" width="7.5" height="8"/>
    <rect class="cls-4" x="98.94" y="32" width="7.5" height="8"/>
    <rect class="cls-4" x="98.94" y="24" width="7.5" height="8"/>
    <rect class="cls-5" x="98.94" y="16" width="7.5" height="8"/>
    <rect class="cls-2" x="98.94" y="8" width="7.5" height="8"/>
    <rect class="cls-2" x="91.44" y="48" width="7.5" height="8"/>
    <rect class="cls-5" x="91.44" y="40" width="7.5" height="8"/>
    <rect class="cls-4" x="91.44" y="32" width="7.5" height="8"/>
    <rect class="cls-4" x="91.44" y="24" width="7.5" height="8"/>
    <rect class="cls-5" x="91.44" y="16" width="7.5" height="8"/>
    <rect class="cls-2" x="91.44" y="8" width="7.5" height="8"/>
    <rect class="cls-2" x="83.94" y="48" width="7.5" height="8"/>
    <rect class="cls-5" x="83.94" y="40" width="7.5" height="8"/>
    <rect class="cls-4" x="83.94" y="32" width="7.5" height="8"/>
    <rect class="cls-4" x="83.94" y="24" width="7.5" height="8"/>
    <rect class="cls-5" x="83.94" y="16" width="7.5" height="8"/>
    <rect class="cls-2" x="83.94" y="8" width="7.5" height="8"/>
    <rect class="cls-2" x="76.44" y="48" width="7.5" height="8"/>
    <rect class="cls-5" x="76.44" y="40" width="7.5" height="8"/>
    <rect class="cls-4" x="76.44" y="32" width="7.5" height="8"/>
    <rect class="cls-4" x="76.44" y="24" width="7.5" height="8"/>
    <rect class="cls-5" x="76.44" y="16" width="7.5" height="8"/>
    <rect class="cls-2" x="76.44" y="8" width="7.5" height="8"/>
    <rect class="cls-2" x="68.94" y="48" width="7.5" height="8"/>
    <rect class="cls-5" x="68.94" y="40" width="7.5" height="8"/>
    <rect class="cls-3" x="68.94" y="32" width="7.5" height="8"/>
    <rect class="cls-4" x="68.94" y="24" width="7.5" height="8"/>
    <rect class="cls-5" x="68.94" y="16" width="7.5" height="8"/>
    <rect class="cls-2" x="68.94" y="8" width="7.5" height="8"/>
    <rect class="cls-2" x="61.44" y="48" width="7.5" height="8"/>
    <rect class="cls-5" x="61.44" y="40" width="7.5" height="8"/>
    <rect class="cls-3" x="61.44" y="32" width="7.5" height="8"/>
    <rect class="cls-4" x="61.44" y="24" width="7.5" height="8"/>
    <rect class="cls-5" x="61.44" y="16" width="7.5" height="8"/>
    <rect class="cls-2" x="61.44" y="8" width="7.5" height="8"/>
    <rect class="cls-2" x="53.94" y="48" width="7.5" height="8"/>
    <rect class="cls-5" x="53.94" y="40" width="7.5" height="8"/>
    <rect class="cls-3" x="53.94" y="32" width="7.5" height="8"/>
    <rect class="cls-3" x="53.94" y="24" width="7.5" height="8"/>
    <rect class="cls-5" x="53.94" y="16" width="7.5" height="8"/>
    <rect class="cls-2" x="53.94" y="8" width="7.5" height="8"/>
    <rect class="cls-2" x="46.44" y="48" width="7.5" height="8"/>
    <rect class="cls-5" x="46.44" y="40" width="7.5" height="8"/>
    <rect class="cls-5" x="46.44" y="32" width="7.5" height="8"/>
    <rect class="cls-3" x="46.44" y="24" width="7.5" height="8"/>
    <rect class="cls-5" x="46.44" y="16" width="7.5" height="8"/>
    <rect class="cls-2" x="46.44" y="8" width="7.5" height="8"/>
    <rect class="cls-2" x="38.94" y="48" width="7.5" height="8"/>
    <rect class="cls-5" x="38.94" y="40" width="7.5" height="8"/>
    <rect class="cls-5" x="38.94" y="32" width="7.5" height="8"/>
    <rect class="cls-3" x="38.94" y="24" width="7.5" height="8"/>
    <rect class="cls-5" x="38.94" y="16" width="7.5" height="8"/>
    <rect class="cls-2" x="38.94" y="8" width="7.5" height="8"/>
    <rect class="cls-2" x="31.44" y="48" width="7.5" height="8"/>
    <rect class="cls-2" x="31.44" y="40" width="7.5" height="8"/>
    <rect class="cls-5" x="31.44" y="32" width="7.5" height="8"/>
    <rect class="cls-5" x="31.44" y="24" width="7.5" height="8"/>
    <rect class="cls-2" x="31.44" y="16" width="7.5" height="8"/>
    <rect class="cls-2" x="31.44" y="8" width="7.5" height="8"/>
    <rect class="cls-2" x="23.94" y="48" width="7.5" height="8"/>
    <rect class="cls-2" x="23.94" y="40" width="7.5" height="8"/>
    <rect class="cls-2" x="23.94" y="32" width="7.5" height="8"/>
    <rect class="cls-2" x="23.94" y="24" width="7.5" height="8"/>
    <rect class="cls-2" x="23.94" y="16" width="7.5" height="8"/>
    <rect class="cls-2" x="23.94" y="8" width="7.5" height="8"/>
    <rect class="cls-2" x="16.44" y="40" width="7.5" height="8"/>
    <rect class="cls-2" x="16.44" y="32" width="7.5" height="8"/>
    <rect class="cls-2" x="16.44" y="24" width="7.5" height="8"/>
    <rect class="cls-2" x="16.44" y="16" width="7.5" height="8"/>
    <rect class="cls-2" x="8.94" y="32" width="7.5" height="8"/>
    <rect class="cls-2" x="8.94" y="24" width="7.5" height="8"/>
  </g>
</svg>